<svg xmlns="http://www.w3.org/2000/svg" width="1000" height="1000" viewBox="0 0 1000 1000">
  <defs>
    <style>
      .cls-1 {
        fill: #323232;
        fill-rule: evenodd;
      }
    </style>
  </defs>
  <path id="administrativo" class="cls-1" d="M967.346,135.114l-9.633,165.041a26.791,26.791,0,0,1-44.481,24.267l-0.033.01-46.424-46.424L497.713,647.07a49.616,49.616,0,0,1-69.164.444L274.514,493.478,112.143,655.849a48,48,0,0,1-67.883,0l-1.414-1.414a48,48,0,0,1,0-67.882L240.367,389.032a48.52,48.52,0,0,1,68.3.01L462.909,543.281l334.57-334.569-51.158-51.157,0.008-.022a26.787,26.787,0,0,1,22.541-44.982l171.2-10.151,0.1,0.1A26.786,26.786,0,0,1,967.346,135.114ZM245.769,898H96.232L96,734,246,583Zm211,0H307.231L307,587,457,737Zm210.962,0H518.013L518,689,668,537ZM861,343h17.987V898h-150L729,476Z"/>
</svg>
