<svg xmlns="http://www.w3.org/2000/svg" width="1000" height="1000" viewBox="0 0 1000 1000">
  <defs>
    <style>
      .cls-1 {
        fill: #323232;
        fill-rule: evenodd;
      }
    </style>
  </defs>
  <path id="Forma_1" data-name="Forma 1" class="cls-1" d="M264.773,4.968v98.8h-18.72s-27.622.582-42.64,15.6c-14.072,14.071-15.6,42.64-15.6,42.64V830.734s2.172,30.032,14.56,42.64c16.212,16.5,43.68,16.64,43.68,16.64H756.7s27.5-1.246,41.6-15.6c14.991-15.258,16.64-43.68,16.64-43.68V162.009s-1.682-27.682-16.64-42.64c-14.139-14.139-41.6-15.6-41.6-15.6H737.976V4.968H839.9s34.127,1.668,54.081,21.84c28.427,28.738,23.92,57.2,23.92,57.2V916.015s3.721,32.118-22.88,56.16c-24.777,22.393-55.121,22.88-55.121,22.88H161.812s-29.867-.487-54.08-22.88c-25.243-23.345-24.96-56.16-24.96-56.16V84.009s1.633-34.315,24.96-56.16c29.819-27.924,54.3-21.55,54.3-21.55Z"/>
  <path id="Rectángulo_2_copia_2" data-name="Rectángulo 2 copia 2" class="cls-1" d="M696.154,703.807H448.617A15.906,15.906,0,0,1,432.711,687.9v-0.994A15.906,15.906,0,0,1,448.617,671H696.154a15.906,15.906,0,0,1,15.906,15.906V687.9A15.906,15.906,0,0,1,696.154,703.807Zm0-124.265H448.617a15.907,15.907,0,0,1-15.906-15.906v-0.994a15.906,15.906,0,0,1,15.906-15.906H696.154a15.906,15.906,0,0,1,15.906,15.906v0.994A15.906,15.906,0,0,1,696.154,579.542Zm0-124.266H448.617a15.906,15.906,0,0,1-15.906-15.906v-0.994a15.906,15.906,0,0,1,15.906-15.906H696.154a15.906,15.906,0,0,1,15.906,15.906v0.994A15.906,15.906,0,0,1,696.154,455.276Zm0-124.265H448.617a15.907,15.907,0,0,1-15.906-15.906v-0.994a15.906,15.906,0,0,1,15.906-15.906H696.154a15.906,15.906,0,0,1,15.906,15.906v0.994A15.906,15.906,0,0,1,696.154,331.011Z"/>
  <path id="Rectángulo_2_copia_4" data-name="Rectángulo 2 copia 4" class="cls-1" d="M386.935,539.234L328.59,597.579a11.931,11.931,0,0,1-16.871,0c-0.031-.031-0.057-0.066-0.087-0.1-0.093-.073-0.191-0.135-0.282-0.211l-30.582-25.416a11.93,11.93,0,0,1,15.249-18.35l23.431,19.473,50.616-50.615A11.93,11.93,0,0,1,386.935,539.234Zm0-125.26L328.59,472.319a11.929,11.929,0,0,1-16.871,0c-0.031-.031-0.057-0.065-0.087-0.1-0.093-.073-0.191-0.136-0.282-0.212L280.768,446.6a11.929,11.929,0,0,1,15.249-18.349l23.431,19.473L370.064,397.1A11.93,11.93,0,0,1,386.935,413.974Zm0-125.259L328.59,347.06a11.931,11.931,0,0,1-16.871,0c-0.031-.031-0.057-0.066-0.087-0.1-0.093-.073-0.191-0.135-0.282-0.211l-30.582-25.416a11.93,11.93,0,0,1,15.249-18.35l23.431,19.473,50.616-50.615A11.93,11.93,0,0,1,386.935,288.715Zm-107.717,391.6a11.929,11.929,0,0,1,16.8-1.55l23.431,19.473,50.616-50.616a11.93,11.93,0,0,1,16.871,16.871L328.59,722.838a11.929,11.929,0,0,1-16.871,0c-0.031-.031-0.057-0.065-0.087-0.1-0.093-.073-0.191-0.136-0.282-0.212l-30.582-25.416A11.929,11.929,0,0,1,279.218,680.315Z"/>
  <path id="Rectángulo_2" data-name="Rectángulo 2" class="cls-1" d="M307.408,6H694.283V153.7H307.408V6Z"/>
</svg>
