<svg id="Grupo_2" data-name="Grupo 2" xmlns="http://www.w3.org/2000/svg" width="1000" height="1000" viewBox="0 0 1000 1000">
  <defs>
    <style>
      .cls-1 {
        fill: #323232;
      }

      .cls-1, .cls-2 {
        fill-rule: evenodd;
      }

      .cls-2 {
        fill: #7e7c7c;
      }
    </style>
  </defs>
  <path id="Forma_2" data-name="Forma 2" class="cls-1" d="M740.136,65.848A22.834,22.834,0,0,1,763.026,43h76.3a22.873,22.873,0,0,1,22.89,22.848V341.3S899.09,364.8,899.09,420c0,54.057-43.724,99.009-97.915,99.009-54.421,0-99.187-44.952-99.187-99.009,0-55.194,38.148-78.7,38.148-78.7V65.848Zm44.507,17.771V362.876c-9.311,0-43.235,19.71-43.235,57.121a59.809,59.809,0,0,0,59.767,59.659c32.775,0,59.766-27.1,59.766-59.659,0-37.558-34.02-57.121-41.964-57.121V83.619H784.643Z"/>
  <path id="Rectángulo_2" data-name="Rectángulo 2" class="cls-2" d="M234.794,459.361s102.188,81.372,194.8,81.372c95.963,0,182.47-81.372,182.47-81.372C763.846,459.361,805,683.215,805,755v61c0,110.816-86,141.455-126.359,141.455H155.888c-39.493,0-110.961-30.329-110.961-143.017V755.259C44.927,683.084,82.8,459.361,234.794,459.361ZM425.323,42.638c123.562,0,223.728,100.736,223.728,225s-100.166,225-223.728,225S201.6,391.9,201.6,267.638,301.761,42.638,425.323,42.638Zm467.961,200.97H956V284.3H893.284v-40.69Zm0-81.379H956v40.69H893.284v-40.69Zm0-81.38H956v40.69H893.284V80.849Zm-92.754,310a30.387,30.387,0,1,1-30.269,30.386A30.328,30.328,0,0,1,800.53,390.85Z"/>
</svg>
