<svg xmlns="http://www.w3.org/2000/svg" width="1000" height="1000" viewBox="0 0 1000 1000">
  <defs>
    <style>
      .cls-1 {
        fill: #323232;
        fill-rule: evenodd;
      }

      .cls-2 {
        fill: none;
        stroke: #323232;
        stroke-width: 200px;
      }
    </style>
  </defs>
  <path id="Rectángulo_1_copia_4" data-name="Rectángulo 1 copia 4" class="cls-1" d="M947.234,397.73L830.2,493.015,671.7,218.485l142.538-51.117a43,43,0,0,1,58.739,15.739l90,155.884A43,43,0,0,1,947.234,397.73ZM587,985H407a43,43,0,0,1-43-43L340,793H657L630,942A43,43,0,0,1,587,985ZM367,61a43,43,0,0,1,43-43H590a43,43,0,0,1,43,43l24,149H340ZM124.027,819.893l-90-155.884A43,43,0,0,1,49.766,605.27L166.8,509.985l158.5,274.53L182.766,835.632A43,43,0,0,1,124.027,819.893ZM51.266,395.132a43,43,0,0,1-15.739-58.739l90-155.884a43,43,0,0,1,58.739-15.739L325.3,218.485,166.8,493.015ZM945.734,607.868a43,43,0,0,1,15.739,58.739l-90,155.884a43,43,0,0,1-58.739,15.739L671.7,784.515l158.5-274.53Z"/>
  <circle id="Elipse_1" data-name="Elipse 1" class="cls-2" cx="499.703" cy="500.953" r="264.547"/>
</svg>
