<?xml version="1.0" encoding="UTF-8"?>
<!DOCTYPE svg PUBLIC "-//W3C//DTD SVG 1.1//EN" "http://www.w3.org/Graphics/SVG/1.1/DTD/svg11.dtd">
<!-- Creator: CorelDRAW 2020 (64-Bit Versión de evaluación) -->
<svg xmlns="http://www.w3.org/2000/svg" xml:space="preserve" width="246.383mm" height="243.562mm" version="1.1" style="shape-rendering:geometricPrecision; text-rendering:geometricPrecision; image-rendering:optimizeQuality; fill-rule:evenodd; clip-rule:evenodd"
viewBox="0 0 9374.28 9266.93"
 xmlns:xlink="http://www.w3.org/1999/xlink"
 xmlns:xodm="http://www.corel.com/coreldraw/odm/2003">
 <defs>
  <style type="text/css">
   <![CDATA[
    .fil0 {fill:#FFF212}
    .fil1 {fill:#323232}
   ]]>
  </style>
 </defs>
 <g id="Capa_x0020_1">
  <metadata id="CorelCorpID_0Corel-Layer"/>
  <path id="consultorio" class="fil0" d="M9351.23 6861.71l-243.2 243.21c-60.34,58.69 -141.32,91.56 -225.55,91.56 -87.42,0 -171.25,-35.43 -232.12,-98.13l-2107.29 -1584.97 -4598.49 0c0,0 -35.95,8.83 -87.06,-38.69 -45.02,-41.87 -100.67,-124.83 -100.67,-124.83l-1730.53 -2406.95c-61.81,-85.97 -5.22,-274.58 71.22,-330.76l331.45 -243.57c372.18,-273.5 1021.51,-260.73 1366.61,219.29l935.05 1300.5 4485.5 0c0,0 1060.28,1060.26 1808.77,1808.77 467.3,467.3 442.11,1048.73 65.13,1425.71l261.16 -261.16z"/>
  <path id="consultorio_0" class="fil1" d="M6355.29 6616.05l-862.72 0.57 0 543.6 -1600.61 10.07 0 -543.6 -854.35 -10.64c-144.21,0 -261.16,-116.95 -261.16,-261.16l-0 -580.35 3646.57 0 193.45 193.45 0 386.9c0,144.21 -116.95,261.16 -261.16,261.16 0,0 0,0 0,0l-0.01 0z"/>
  <path id="consultorio_1" class="fil1" d="M3056.94 7418.88l3269.33 0c459.34,-0 831.85,372.5 831.85,831.84l0 1015.2 -4933.02 1.01 0 -1016.21c0,-459.33 372.51,-831.84 831.85,-831.84l-0.01 0z"/>
  <path id="consultorio_2" class="fil1" d="M7080.74 0c613.64,18.12 1170.39,506.56 1170.39,1141.37l-0 3395.08 -532 -522.32 0 -2853.42c0,-291.4 -245.72,-619.05 -657.73,-619.05 -205.56,0 -377.23,135.42 -377.23,135.42 0,0 145.08,214.42 145.08,667.43 0,359.26 -347.69,695.08 -541.66,870.53 -101.41,91.74 -185.88,95.75 -328.87,58.05 -451.34,-441.68 -796.42,-806.09 -1247.76,-1247.77 -48.9,-117.78 -54.73,-216.73 0,-299.85 137.17,-208.28 492.32,-523.54 860.86,-580.36 359.99,-55.51 735.16,145.07 735.16,145.07 0,0 324.89,-290.17 773.77,-290.17z"/>
 </g>
</svg>
