<?xml version="1.0" encoding="UTF-8"?>
<!DOCTYPE svg PUBLIC "-//W3C//DTD SVG 1.1//EN" "http://www.w3.org/Graphics/SVG/1.1/DTD/svg11.dtd">
<!-- Creator: CorelDRAW 2020 (64-Bit Versión de evaluación) -->
<svg xmlns="http://www.w3.org/2000/svg" xml:space="preserve" width="246.383mm" height="243.562mm" version="1.1" style="shape-rendering:geometricPrecision; text-rendering:geometricPrecision; image-rendering:optimizeQuality; fill-rule:evenodd; clip-rule:evenodd"
viewBox="0 0 7655.69 7568.02"
 xmlns:xlink="http://www.w3.org/1999/xlink"
 xmlns:xodm="http://www.corel.com/coreldraw/odm/2003">
 <defs>
  <style type="text/css">
   <![CDATA[
    .fil0 {fill:#0098DA}
    .fil1 {fill:#323232}
   ]]>
  </style>
 </defs>
 <g id="Capa_x0020_1">
  <metadata id="CorelCorpID_0Corel-Layer"/>
  <path id="consultorio" class="fil0" d="M7636.86 5603.75l-198.62 198.62c-49.28,47.93 -115.41,74.77 -184.2,74.77 -71.39,0 -139.85,-28.94 -189.57,-80.14l-1720.96 -1294.4 -3755.44 0c0,0 -29.36,7.21 -71.1,-31.59 -36.76,-34.19 -82.21,-101.94 -82.21,-101.94l-1413.27 -1965.68c-50.48,-70.21 -4.27,-224.24 58.16,-270.12l270.68 -198.91c303.95,-223.36 834.24,-212.93 1116.07,179.09l763.63 1062.08 3663.17 0c0,0 865.9,865.89 1477.17,1477.17 381.63,381.63 361.06,856.47 53.19,1164.33l213.28 -213.28z"/>
  <path id="consultorio_0" class="fil1" d="M5190.17 5403.12l-704.56 0.47 0 443.95 -1307.17 8.22 0 -443.95 -697.73 -8.69c-117.77,0 -213.28,-95.51 -213.28,-213.28l-0 -473.95 2978.04 0 157.99 157.99 0 315.97c0,117.77 -95.51,213.28 -213.28,213.28 0,0 0,0 0,0l-0.01 0z"/>
  <path id="consultorio_1" class="fil1" d="M2496.51 6058.77l2669.96 0c375.13,-0 679.34,304.21 679.34,679.34l0 829.08 -4028.64 0.82 0 -829.91c0,-375.12 304.22,-679.34 679.35,-679.34l-0.01 0z"/>
  <path id="consultorio_2" class="fil1" d="M5782.62 0c501.14,14.8 955.82,413.69 955.82,932.12l-0 2772.66 -434.47 -426.56 0 -2330.3c0,-237.98 -200.67,-505.56 -537.15,-505.56 -167.88,0 -308.07,110.59 -308.07,110.59 0,0 118.48,175.11 118.48,545.07 0,293.4 -283.94,567.65 -442.36,710.94 -82.82,74.92 -151.8,78.2 -268.58,47.4 -368.6,-360.71 -650.41,-658.31 -1019.01,-1019.02 -39.94,-96.19 -44.7,-176.99 0,-244.88 112.02,-170.1 402.07,-427.56 703.04,-473.96 294,-45.33 600.38,118.48 600.38,118.48 0,0 265.33,-236.98 631.91,-236.98z"/>
 </g>
</svg>
