<?xml version="1.0" encoding="UTF-8"?>
<!DOCTYPE svg PUBLIC "-//W3C//DTD SVG 1.1//EN" "http://www.w3.org/Graphics/SVG/1.1/DTD/svg11.dtd">
<!-- Creator: CorelDRAW 2020 (64-Bit Versión de evaluación) -->
<svg xmlns="http://www.w3.org/2000/svg" xml:space="preserve" width="246.383mm" height="243.562mm" version="1.1" style="shape-rendering:geometricPrecision; text-rendering:geometricPrecision; image-rendering:optimizeQuality; fill-rule:evenodd; clip-rule:evenodd"
viewBox="0 0 66058.74 65302.23"
 xmlns:xlink="http://www.w3.org/1999/xlink"
 xmlns:xodm="http://www.corel.com/coreldraw/odm/2003">
 <defs>
  <style type="text/css">
   <![CDATA[
    .fil0 {fill:#EC268F}
    .fil1 {fill:#323232}
   ]]>
  </style>
 </defs>
 <g id="Capa_x0020_1">
  <metadata id="CorelCorpID_0Corel-Layer"/>
  <path id="consultorio" class="fil0" d="M65896.27 48353.12l-1713.81 1713.86c-425.2,413.59 -995.88,645.19 -1589.38,645.19 -616.05,0 -1206.75,-249.69 -1635.74,-691.49l-14849.65 -11169.01 -32404.64 0c0,0 -253.31,62.2 -613.47,-272.62 -317.23,-295.03 -709.38,-879.63 -709.38,-879.63l-12194.7 -16961.28c-435.55,-605.8 -36.81,-1934.92 501.88,-2330.82l2335.65 -1716.36c2622.66,-1927.34 7198.4,-1837.3 9630.25,1545.33l6589.11 9164.4 31608.48 0c0,0 7471.58,7471.47 12746.08,12746.05 3292.95,3292.95 3115.46,7390.21 458.96,10046.71l1840.36 -1840.33z"/>
  <path id="consultorio_0" class="fil1" d="M44784.5 46621.99l-6079.43 4.05 0 3830.68 -11279.2 70.94 0 -3830.68 -6020.47 -74.99c-1016.21,0 -1840.33,-824.13 -1840.33,-1840.36l-0.03 -4089.59 25696.65 0 1363.22 1363.22 0 2726.4c0,1016.21 -824.13,1840.33 -1840.36,1840.33 0,0 0,0 0,0l-0.05 0z"/>
  <path id="consultorio_1" class="fil1" d="M21541.69 52279.41l23038.35 0c3236.86,-0.03 5861.85,2624.97 5861.85,5861.83l0 7153.89 -34762 7.11 0 -7161.03c0.03,-3236.83 2625.02,-5861.83 5861.88,-5861.83l-0.08 0.03z"/>
  <path id="consultorio_2" class="fil1" d="M49896.6 0c4324.19,127.7 8247.53,3569.61 8247.53,8043.01l-0.03 23924.47 -3748.87 -3680.69 0 -20107.52c0,-2053.46 -1731.53,-4362.29 -4634.91,-4362.29 -1448.57,0 -2658.27,954.27 -2658.27,954.27 0,0 1022.37,1510.98 1022.37,4703.23 0,2531.66 -2450.08,4898.09 -3816.98,6134.47 -714.63,646.45 -1309.87,674.76 -2317.5,409.03 -3180.53,-3112.43 -5612.21,-5680.39 -8792.74,-8792.82 -344.61,-829.97 -385.68,-1527.23 0,-2112.98 966.6,-1467.71 3469.31,-3689.3 6066.29,-4089.67 2536.81,-391.15 5180.5,1022.29 5180.5,1022.29 0,0 2289.45,-2044.8 5452.6,-2044.8z"/>
 </g>
</svg>
