<svg xmlns="http://www.w3.org/2000/svg" width="1000" height="1000" viewBox="0 0 1000 1000">
  <defs>
    <style>
      .cls-1 {
        fill: #323232;
        fill-rule: evenodd;
      }
    </style>
  </defs>
  <path id="consultorio" class="cls-1" d="M737.764,39.725c60.957,1.8,116.263,50.32,116.263,113.38V490.362L801.18,438.476V155.026c0-28.947-24.409-61.494-65.337-61.494-20.42,0-37.473,13.452-37.473,13.452s14.412,21.3,14.412,66.3c0,35.688-34.538,69.047-53.807,86.476-10.074,9.113-18.465,9.512-32.669,5.766-44.835-43.875-79.114-80.075-123.949-123.95-4.858-11.7-5.437-21.529,0-29.786,13.626-20.69,48.906-52.007,85.515-57.651C623.633,48.625,660.9,68.55,660.9,68.55S693.174,39.725,737.764,39.725ZM338.052,776.694H662.818a82.633,82.633,0,0,1,82.633,82.632V960.173l-490.031.1V859.326A82.633,82.633,0,0,1,338.052,776.694ZM665.7,696.943L580,697v54l-159,1V698l-84.869-1.057A25.943,25.943,0,0,1,310.188,671V613.35H672.427l19.217,19.217V671A25.943,25.943,0,0,1,665.7,696.943Zm271.663,50.346-24.159,24.16a32.143,32.143,0,0,1-45.463-.653L684.353,587.407h-456.8s-3.571.877-8.648-3.843c-4.472-4.159-10-12.4-10-12.4L37,332.065c-6.14-8.54-.519-27.276,7.075-32.857L77,275.013c36.971-27.169,101.474-25.9,135.755,21.784l92.885,129.188H751.216S856.541,531.309,930.894,605.663C977.314,652.083,974.812,709.841,937.364,747.289Z"/>
</svg>
