<?xml version="1.0" encoding="UTF-8"?>
<!DOCTYPE svg PUBLIC "-//W3C//DTD SVG 1.1//EN" "http://www.w3.org/Graphics/SVG/1.1/DTD/svg11.dtd">
<!-- Creator: CorelDRAW 2020 (64-Bit Versión de evaluación) -->
<svg xmlns="http://www.w3.org/2000/svg" xml:space="preserve" width="246.383mm" height="243.562mm" version="1.1" style="shape-rendering:geometricPrecision; text-rendering:geometricPrecision; image-rendering:optimizeQuality; fill-rule:evenodd; clip-rule:evenodd"
viewBox="0 0 72188.07 71361.37"
 xmlns:xlink="http://www.w3.org/1999/xlink"
 xmlns:xodm="http://www.corel.com/coreldraw/odm/2003">
 <defs>
  <style type="text/css">
   <![CDATA[
    .fil0 {fill:#F58634}
    .fil1 {fill:#323232}
   ]]>
  </style>
 </defs>
 <g id="Capa_x0020_1">
  <metadata id="CorelCorpID_0Corel-Layer"/>
  <path id="consultorio" class="fil0" d="M72010.52 52839.62l-1872.83 1872.89c-464.65,451.97 -1088.29,705.05 -1736.85,705.05 -673.21,0 -1318.72,-272.86 -1787.51,-755.65l-16227.48 -12205.33 -35411.34 0c0,0 -276.82,67.97 -670.39,-297.91 -346.67,-322.41 -775.2,-961.25 -775.2,-961.25l-13326.2 -18535.05c-475.96,-662.01 -40.23,-2114.46 548.45,-2547.09l2552.36 -1875.61c2866.01,-2106.17 7866.31,-2007.78 10523.8,1688.71l7200.49 10014.73 34541.3 0c0,0 8164.84,8164.72 13928.74,13928.71 3598.49,3598.49 3404.53,8075.92 501.54,10978.9l2011.12 -2011.09z"/>
  <path id="consultorio_0" class="fil1" d="M48939.88 50947.86l-6643.51 4.42 0 4186.11 -12325.75 77.53 0 -4186.11 -6579.08 -81.95c-1110.49,0 -2011.09,-900.6 -2011.09,-2011.12l-0.03 -4469.05 28080.94 0 1489.71 1489.71 0 2979.37c0,1110.49 -900.6,2011.09 -2011.12,2011.09 0,0 0,0 0,0l-0.06 0z"/>
  <path id="consultorio_1" class="fil1" d="M23540.45 57130.21l25175.99 0c3537.19,-0.03 6405.75,2868.53 6405.75,6405.72l0 7817.67 -37987.43 7.76 0 -7825.47c0.03,-3537.16 2868.59,-6405.72 6405.78,-6405.72l-0.09 0.03z"/>
  <path id="consultorio_2" class="fil1" d="M54526.31 0c4725.42,139.55 9012.79,3900.82 9012.79,8789.29l-0.03 26144.32 -4096.72 -4022.21 0 -21973.21c0,-2243.99 -1892.19,-4767.05 -5064.97,-4767.05 -1582.97,0 -2904.92,1042.81 -2904.92,1042.81 0,0 1117.23,1651.18 1117.23,5139.62 0,2766.57 -2677.41,5352.57 -4171.14,6703.66 -780.94,706.43 -1431.41,737.37 -2532.53,446.99 -3475.64,-3401.22 -6132.95,-6207.45 -9608.58,-9608.67 -376.58,-906.98 -421.47,-1668.94 0,-2309.03 1056.29,-1603.89 3791.22,-4031.62 6629.16,-4469.14 2772.19,-427.44 5661.17,1117.15 5661.17,1117.15 0,0 2501.88,-2234.53 5958.53,-2234.53z"/>
 </g>
</svg>
