<svg xmlns="http://www.w3.org/2000/svg" width="1000" height="1000" viewBox="0 0 1000 1000">
  <defs>
    <style>
      .cls-1 {
        fill: #323232;
        fill-rule: evenodd;
      }
    </style>
  </defs>
  <path id="cumpleaños" class="cls-1" d="M500,43c25.793,0,68,69.967,68,108a68,68,0,0,1-136,0C432,113.664,472.368,43,500,43ZM461,282h78V401H768c63.133,0,110,48.16,110,108-69.31,0-88.584,53-122,53-47.84,0-53.856-53-129-53-72.1,0-81.145,52-126,52-44.517,0-53.852-52-121-52-89.081,0-78.749,52-133,52-47.125,0-50.995-52-125-52,0-59.84,49.344-108,108-108H461V282ZM122,571c38.338,0,55.789,52,119,52,86.57,0,86.747-51,134-51,44.388,0,58.849,52,123,52,72.558,0,89.617-53,128-53,41.023,0,61.494,52,123,52,77.1,0,89.283-52,129-52V838H122V571ZM41,900H959v58H41V900Z"/>
</svg>
