<svg xmlns="http://www.w3.org/2000/svg" width="1000" height="1000" viewBox="0 0 1000 1000">
  <defs>
    <style>
      .cls-1 {
        fill: #323232;
        fill-rule: evenodd;
      }
    </style>
  </defs>
  <path id="estado_de_cuenta_" data-name="estado de cuenta " class="cls-1" d="M853,859c-75.78,12.664-165,6-165,6s34.795-32.81,56-65c20.274-30.778,28-54,28-54s46.462-.749,96-11c91.455-18.925,108-46,108-46v94S970.06,839.437,853,859ZM787,679a446.285,446.285,0,0,0,0-45,270.188,270.188,0,0,0-7-46c-0.006,0,50.312-2.324,94.941-10.431C929.8,567.6,976,539,976,539v91s-41.234,26.5-94,37C839.055,675.544,787,679,787,679ZM754,519a254.068,254.068,0,0,0-71-85c-0.018,0,103.648,9.316,185.028-8.483C936.581,410.524,976,385,976,385v89s-52.323,23.67-108,35C813.265,520.138,754,519,754,519Zm-8-134c-192.608,0-231-58-231-58V201c0-52.71,115.046-88.912,230-89,115.544-.088,231,36.209,231,89V327S936.966,385,746,385Zm-1-237c-172.654,0-191,53-191,53s18.028,52,191,52c169.471,0,193-52,193-52S914.32,148,745,148ZM511,816A164.71,164.71,0,0,1,346,651c0-90.542,73.947-164,165-164A163.833,163.833,0,0,1,675,651C675,742.655,601.869,816,511,816Zm31-232c5.349,8.024,3,22,3,22h43s-0.941-31.246-16-47c-17.287-18.084-49-21-49-21V518H507v20s-66-.3-66,63c0,56.976,66,66,66,66v63s-15.085-4.549-22-14c-8-10.94-4-27-4-27H437s-4.226,33.774,17,55c22.576,22.576,53,21,53,21v30h16V765s69,0.469,69-68c0-54.286-69-69-69-69V573S536.357,575.536,542,584Zm-59,13c0-21.169,24-24,24-24v51S483,621.485,483,597Zm65,104c0,27.557-25,29-25,29V671S548,680.116,548,701Zm178.5-49a21.5,21.5,0,0,1-21.347-19.029L705,633l-4.732-30.284A21.48,21.48,0,1,1,741.7,592.064L742,592l4.745,31.32A21.45,21.45,0,0,1,726.5,652ZM717,532l-0.322.137a21.478,21.478,0,0,1-39.483,16.78L677,549s-58.515-95.094-167-95c-107.907.094-196,87.514-196,198,0,106,87.873,194,196,194,12.45,0,71.211-2.381,117-39,64.21-51.351,75-116,75-116l0.076,0a21.478,21.478,0,0,1,42.9,1H745s0,0.078-.014.221c0,0.094.014,0.185,0.014,0.279a21.492,21.492,0,0,1-.609,5C741.962,714.575,730.245,768.815,676,824c-41.645,42.366-107.318,66-166,66-131.5,0-238-106.461-238-238,0-132.148,106.693-239,238-239,49.447,0,96.9,16.729,129,37C692.856,484.012,717,532,717,532ZM257,542s-72.285.295-137-17c-49.1-13.122-95-51-95-51V349s9.139-89,232-89c221.5,0,231,89,231,89v27s-61.316.483-135.292,49.6C291.984,465.91,257,542,257,542ZM452,349s-36.156-54-195-54C95.687,295,61,349,61,349s34.728,52,196,52C415.768,401,452,349,452,349ZM241,594s-2,8.529-4,32c-2,23.529-1,56-1,56s-63.383-5-114-17c-54.722-12.967-97-41-97-41V532c0.011,0,47.629,33.735,110.083,48.64C187.406,593.127,241,594,241,594Zm7,141s14.084,44.98,39,79c27,36.865,63,62,63,62s-108.3,17.434-219-7C49.871,851.092,25,804,25,804V680s45.15,24.705,95,37C180.594,731.945,248,735,248,735Z"/>
</svg>
