<svg id="Grupo_2" data-name="Grupo 2" xmlns="http://www.w3.org/2000/svg" width="1000" height="1000" viewBox="0 0 1000 1000">
  <defs>
    <style>
      .cls-1 {
        fill: #7e7c7c;
      }

      .cls-1, .cls-2 {
        fill-rule: evenodd;
      }

      .cls-2 {
        fill: #323232;
      }
    </style>
  </defs>
  <path id="Exploración_de_cabeza_y_Cuello" data-name="Exploración de cabeza y Cuello" class="cls-1" d="M463.1,26.105c130.873,0,245.884,79.745,294.77,161.335,39.655,66.184,43.833,114.429,40.974,181.822-2.1,49.587,30.94,78.419,51.217,94.753,23.689,19.082,43.585,19.161,43.535,39.873-0.108,44.922-53.778,39.662-53.778,67.684,0,18.284,19.707,17.79,20.487,35.852,0.752,17.43-38.413,48.656-38.413,48.656s18.238,7.675,20.487,28.17c2.73,24.888-38.414,51.217-38.414,51.217s7.622,66.6-10.243,87.07c-30.813,35.3-103.812-2.6-215.113,48.657-50.459,23.236-82.892,66.65-97.314,87.069-17.99,25.471-35.852,12.8-35.852,12.8L202.16,886.559s-10.835-4.877-15.365-12.8c-5.6-9.8-5.122-23.047-5.122-23.047s21.043-50.383,0-161.335c-15.076-79.493-82.368-163.052-74.265-312C116.912,202.662,255.915,26.105,463.1,26.105Z"/>
  <path id="lupa" class="cls-2" d="M879.562,868.382a47.885,47.885,0,0,1-67.72,67.719L674.571,798.83c-0.786-.785-1.511-1.568-2.188-2.35a194.509,194.509,0,0,1-99.794,27.476c-107.265,0-194.769-87.063-194.769-194.231,0-107.185,87.5-194.231,194.769-194.231,107.541,0,195.306,87.046,195.306,194.231a191.773,191.773,0,0,1-27.715,99.408c0.7,0.617,1.405,1.272,2.11,1.977ZM572.05,485.532c-79.231,0-143.655,64.679-143.655,144.193,0,79.665,64.424,144.193,145.808,144.193,78.305,0,143.117-64.528,143.117-144.193C717.32,550.211,652.508,485.532,572.05,485.532Z"/>
</svg>
