<svg id="Grupo_2" data-name="Grupo 2" xmlns="http://www.w3.org/2000/svg" width="1000" height="1000" viewBox="0 0 1000 1000">
  <defs>
    <style>
      .cls-1 {
        fill: #323232;
      }

      .cls-1, .cls-2 {
        fill-rule: evenodd;
      }

      .cls-2 {
        fill: #7e7c7c;
      }
    </style>
  </defs>
  <path id="Elipse_1" data-name="Elipse 1" class="cls-1" d="M386,560.443H614.66a11,11,0,0,1,11,11v120.9a11,11,0,0,1-11,11H386a11,11,0,0,1-11-11v-120.9A11,11,0,0,1,386,560.443Zm114.329-189.75a90.19,90.19,0,1,1-90.19,90.19A90.19,90.19,0,0,1,500.331,370.693Z"/>
  <path id="Forma_1" data-name="Forma 1" class="cls-2" d="M573,143H763c22.039,0,39,18.07,39,41V928c0,21.3-16.961,40-39,40H237c-20.52,0-39-18.7-39-41,0-9.374-.035-731.789-0.035-742.555C197.965,161.07,216.48,143,237,143H430V42a10.809,10.809,0,0,1,11-11H562a11.45,11.45,0,0,1,11,11V143ZM422,214c-14.366,0-26,11.536-26,27,0,14.592,11.634,26,26.6,26H581a25.883,25.883,0,0,0,26-26c0-15.464-11.689-27-26-27h-8v30H430V214h-8ZM392,348a52.727,52.727,0,0,0-53,53V605a52.821,52.821,0,0,0,53,53H608a52.927,52.927,0,0,0,53-53V401a52.833,52.833,0,0,0-53-53H392ZM343,836H656a31,31,0,0,0,.1-61.993L343,774A31,31,0,0,0,343,836Z"/>
</svg>
