<svg xmlns="http://www.w3.org/2000/svg" width="1000" height="1000" viewBox="0 0 1000 1000">
  <defs>
    <style>
      .cls-1 {
        fill: #323232;
        fill-rule: evenodd;
      }
    </style>
  </defs>
  <path id="Odontograma_Diagnóstico_copia" data-name="Odontograma Diagnóstico copia" class="cls-1" d="M174,517H120V474a28.029,28.029,0,0,1,28-28h26v71Zm650,90h54V560a28.029,28.029,0,0,0-28-28H824v75ZM125,537H418a27.567,27.567,0,0,1,28,28v42c0,11.02,7.861,20,19,20,53.328,0.667,394.089,0,411,0,15.467,0,28.238,12.174,28,28-0.184,12.186,0,252,0,274a27.951,27.951,0,0,1-28,28H125c-16.413,0-28-12.462-28-28V565C97,551,111,537,125,537ZM439,773v98h92V773H439Zm155,15v22H848V788H594Zm0,68H848V834H594v22ZM803,607H466V560c0-23.509-19.574-43-42-43H195V71a27.854,27.854,0,0,1,28-28H775a28.169,28.169,0,0,1,28,28C803,255.315,802.333,422.685,803,607ZM220,68V493H430a59.806,59.806,0,0,1,60,60v30H778V68H220ZM536,504H718v23H536V504Zm0-47H718v23H536V457ZM281,410H718v23H281V410Zm0-47H718v23H281V363Zm217.292-38.417c-60.485,0-109.58-49.242-109.58-109.81,0-60.634,49.1-109.81,109.58-109.81A109.81,109.81,0,0,1,498.292,324.583Zm0-211.563A101.638,101.638,0,1,0,600.045,214.773,101.5,101.5,0,0,0,498.292,113.02Zm51.621,110.385a133.481,133.481,0,0,0-3.817,34.347c-0.312,13.749-7.853,28.077-17.446,28.077-19.118,0-20.438-40.344-29.44-40.344-7.881,0-11.314,40.344-28.622,40.344-10.491,0-17.991-14.277-17.991-28.077,0-18.73-1.335-24.734-4.362-34.62-3.8-12.415-9-15.7-9-36.255,0-20.471,16.975-42.369,31.49-42.369,13.354,0,18.922,4.751,28.48,4.751,10.583,0,13.779-4.751,29.524-4.751,14.912,0,30.611,19.785,30.611,42.513C559.345,211.432,552.363,213.334,549.913,223.405Z"/>
</svg>
