<svg xmlns="http://www.w3.org/2000/svg" width="1000" height="1000" viewBox="0 0 1000 1000">
  <defs>
    <style>
      .cls-1 {
        fill: #323232;
        fill-rule: evenodd;
      }
    </style>
  </defs>
  <path id="Forma_3" data-name="Forma 3" class="cls-1" d="M174,517H120V474a28.029,28.029,0,0,1,28-28h26v71Zm650,90h54V560a28.029,28.029,0,0,0-28-28H824v75Zm-21,0H466V560c0-23.509-19.574-43-42-43H195V71a27.854,27.854,0,0,1,28-28H775a28.169,28.169,0,0,1,28,28C803,255.315,802.333,422.685,803,607ZM499,91A122.144,122.144,0,0,0,377,213c0,67.149,54.744,123,122,123A123.136,123.136,0,0,0,622,213C622,145.723,566.874,91,499,91Zm-1.977,8.882C562.133,99.882,613,150.287,613,213A113.723,113.723,0,0,1,499,327c-62.262,0-113-49.426-113-114C386,150.287,436.738,99.882,497.023,99.882ZM466,135c-14.616,0-33,26.185-33,47,0,28.735,14,30.156,14,79,0,16.493,10.03,31,21,31,19.143,0,21.4-45,32-45,8.76,0,13.47,45,33,45,9.466,0,19-17.507,19-31,0-45.188,14-49.057,14-79,0-29.311-20.784-47-33-47-15.674-.784-17.542,5-33,5C489,140,480.289,135,466,135ZM264,388v22H734V388H264Zm0,47v22H734V435H264Zm254,47v22H734V482H518Zm0,47v22H734V529H518Zm-393,8H418a27.567,27.567,0,0,1,28,28v42c0,11.02,7.861,20,19,20,53.328,0.667,394.089,0,411,0,15.467,0,28.238,12.174,28,28-0.184,12.186,0,252,0,274a27.951,27.951,0,0,1-28,28H125c-16.413,0-28-12.462-28-28V565C97,551,111,537,125,537ZM439,773v98h92V773H439Zm155,15v22H848V788H594Zm0,68H848V834H594v22Z"/>
</svg>
