<svg xmlns="http://www.w3.org/2000/svg" width="2656" height="1286" viewBox="0 0 2656 1286">
  <defs>
    <style>
      .cls-1 {
        fill: #fff;
        fill-rule: evenodd;
      }
    </style>
  </defs>
  <path id="ibee_copia" data-name="ibee copia" class="cls-1" d="M261.09,140.485c0,54.314-44.309,98.622-97.193,98.622a98.82,98.82,0,0,1-98.622-98.622c0-52.884,44.309-97.192,98.622-97.192C216.781,43.293,261.09,87.6,261.09,140.485ZM163.9,993.78c-62.889,0-114.344-51.455-114.344-114.344V384.9c0-62.889,51.455-114.344,114.344-114.344S278.241,322.007,278.241,384.9v494.54C278.241,942.325,226.787,993.78,163.9,993.78ZM715.542,273.411c-48.6,0-97.193,10-138.643,27.156V167.642c0-62.889-48.6-112.915-110.056-112.915H455.408c-57.172,1.429-105.768,50.026-105.768,107.2V885.153c0,61.46,47.167,108.627,108.627,108.627,31.445,0,58.6-12.864,78.612-34.3,52.884,28.586,114.344,45.733,178.663,45.733,201.532,0,365.9-164.366,365.9-365.9S917.074,273.411,715.542,273.411Zm0,504.544c-75.753,0-138.643-62.889-138.643-138.642,0-77.183,62.89-138.643,138.643-138.643s138.642,61.46,138.642,138.643C854.184,715.066,791.3,777.955,715.542,777.955ZM1835.98,593.575c-22.87-182.951-177.23-320.164-361.61-320.164-161.52,0-285.87,101.48-335.89,222.971-38.59,92.905-40.02,205.82,4.29,297.3,57.17,118.633,185.81,211.533,350.18,211.533,72.89,0,142.93-18.577,204.39-54.309,45.73-27.157,61.46-87.188,34.3-134.355-27.16-45.738-87.19-62.889-132.93-34.3-91.47,50.026-210.1,35.732-272.99-60.031h380.19C1787.38,722.212,1844.56,679.333,1835.98,593.575Zm-508.83-34.3c12.86-54.313,74.32-105.768,145.79-105.768,72.89,0,132.92,51.455,145.79,105.768H1327.15Zm1277.66,34.3c-22.87-182.951-177.23-320.164-361.61-320.164-161.51,0-285.86,101.48-335.89,222.971-38.59,92.905-40.02,205.82,4.29,297.3,57.17,118.633,185.81,211.533,350.18,211.533,72.89,0,142.93-18.577,204.39-54.309,45.74-27.157,61.46-87.188,34.3-134.355-27.15-45.738-87.18-62.889-132.92-34.3-91.48,50.026-210.11,35.732-273-60.031h380.2C2556.22,722.212,2613.39,679.333,2604.81,593.575Zm-508.83-34.3c12.86-54.313,74.32-105.768,145.79-105.768,72.89,0,132.92,51.455,145.79,105.768H2095.98Z"/>
  <path id="smart_dental_assistant_copia" data-name="smart dental assistant copia" class="cls-1" d="M309.258,1229.29a41.029,41.029,0,0,0,9.619,7.46,44.113,44.113,0,0,0,11.283,4.41,50.138,50.138,0,0,0,11.642,1.43,56.582,56.582,0,0,0,16.632-2.33,39.832,39.832,0,0,0,13.17-6.7,30.8,30.8,0,0,0,8.631-10.61,31.191,31.191,0,0,0,3.1-14.07,28.281,28.281,0,0,0-2.787-12.72,30.4,30.4,0,0,0-7.821-9.84,48.9,48.9,0,0,0-12.092-7.29,91.541,91.541,0,0,0-15.6-5.03,61.9,61.9,0,0,1-7.641-2.43,39.387,39.387,0,0,1-7.282-3.68,23.374,23.374,0,0,1-5.484-4.81,9,9,0,0,1-2.158-5.8,13.977,13.977,0,0,1,1.753-7.15,15.177,15.177,0,0,1,4.675-4.99,20.18,20.18,0,0,1,6.608-2.87,32.089,32.089,0,0,1,7.641-.9,24.759,24.759,0,0,1,7.6,1.03,21.54,21.54,0,0,1,5.709,2.79,25,25,0,0,1,4.5,4c1.317,1.5,2.666,3.05,4.045,4.67a7.794,7.794,0,0,0,2.338,2.07q1.079,0.54,3.146-.63l7.013-5.3c1.137-.84,1.677-1.7,1.618-2.57a7.362,7.362,0,0,0-1.169-3.1c-2.337-3.17-4.585-5.98-6.743-8.4a34.022,34.022,0,0,0-7.1-6.12,30.1,30.1,0,0,0-8.855-3.73,49.169,49.169,0,0,0-11.912-1.26,48.2,48.2,0,0,0-15.418,2.34,35.958,35.958,0,0,0-11.956,6.57,29.647,29.647,0,0,0-7.777,10.15,30.537,30.537,0,0,0-2.787,13.13,28.766,28.766,0,0,0,2.338,11.82,28.118,28.118,0,0,0,6.787,9.35,44.8,44.8,0,0,0,10.788,7.19,79.3,79.3,0,0,0,14.429,5.26q4.586,1.26,9.215,2.43a38.722,38.722,0,0,1,8.361,3.1,18.313,18.313,0,0,1,6.068,4.9,12.291,12.291,0,0,1,2.338,7.82,12.566,12.566,0,0,1-2.473,7.78,19.817,19.817,0,0,1-6.113,5.35,29.23,29.23,0,0,1-7.776,3.05,32.683,32.683,0,0,1-7.552.99,25.982,25.982,0,0,1-6.023-.85,32.774,32.774,0,0,1-6.923-2.56,28.047,28.047,0,0,1-6.338-4.36,16,16,0,0,1-4.27-6.16,7.951,7.951,0,0,0-1.978-2.74c-0.84-.75-2.009-0.83-3.506-0.23l-8.541,3.96a6.219,6.219,0,0,0-1.393.9,2.667,2.667,0,0,0-.719,1.03,2.535,2.535,0,0,0-.045,1.44,20.661,20.661,0,0,0,.629,2.2A30.124,30.124,0,0,0,309.258,1229.29Zm108.33-98.53a3.889,3.889,0,0,0-1.124-2.79,3.983,3.983,0,0,0-3.012-1.17H404.1a3.963,3.963,0,0,0-2.787,1.08,3.73,3.73,0,0,0-1.169,2.88v106.26q0,3.96,4.225,3.96h9.26q3.955,0,3.956-3.96v-66.44a27.122,27.122,0,0,1,2.607-12.13,27.638,27.638,0,0,1,6.787-8.9,29.179,29.179,0,0,1,9.395-5.44,30.825,30.825,0,0,1,10.338-1.84,29.513,29.513,0,0,1,13.665,2.87,25.325,25.325,0,0,1,8.945,7.46,29.993,29.993,0,0,1,4.855,10.21,42.955,42.955,0,0,1,1.483,11.01v61.31a8.109,8.109,0,0,0,.944,4.5q0.945,1.35,4.271,1.35h6.652a5.5,5.5,0,0,0,4-1.53,6.133,6.133,0,0,0,1.573-4.59v-61.04a41.539,41.539,0,0,1,1.978-13.26,27.707,27.707,0,0,1,5.709-9.98,24.419,24.419,0,0,1,9.125-6.25,32.662,32.662,0,0,1,12.226-2.15,29.642,29.642,0,0,1,13.665,2.87,25.334,25.334,0,0,1,8.945,7.46,29.993,29.993,0,0,1,4.855,10.21,42.955,42.955,0,0,1,1.483,11.01v61.31a8.109,8.109,0,0,0,.944,4.5q0.943,1.35,4.27,1.35h6.653a5.505,5.505,0,0,0,4-1.53,6.133,6.133,0,0,0,1.573-4.59v-61.04a60.81,60.81,0,0,0-2.922-19.06,44.892,44.892,0,0,0-8.63-15.51,40.4,40.4,0,0,0-14.16-10.42,46.873,46.873,0,0,0-19.508-3.83,62.482,62.482,0,0,0-11.642,1.08,41.517,41.517,0,0,0-10.7,3.55,34.705,34.705,0,0,0-8.991,6.43,31.22,31.22,0,0,0-6.517,9.62,38.132,38.132,0,0,0-14.384-15.33q-8.991-5.25-23.195-5.26a42.089,42.089,0,0,0-10.428,1.17,31.772,31.772,0,0,0-8.046,3.24,34.16,34.16,0,0,0-6.428,4.81,59,59,0,0,0-5.394,5.89v-9.35Zm265.745,106.26a3.885,3.885,0,0,0,1.124,2.79,3.979,3.979,0,0,0,3.011,1.17h9.35a3.967,3.967,0,0,0,2.787-1.08,3.737,3.737,0,0,0,1.169-2.88V1130.67q0-3.96-4.226-3.96h-9.259q-3.957,0-3.956,3.96v10.97a57.208,57.208,0,0,0-17.98-12.45,54.155,54.155,0,0,0-22.206-4.54,56.748,56.748,0,0,0-15.552,2.11A59.5,59.5,0,0,0,601.613,1142a60.937,60.937,0,0,0-9.3,11.95,58.213,58.213,0,0,0-6.024,14.07,58.67,58.67,0,0,0,0,31.2,58.837,58.837,0,0,0,6.024,14.11,60.094,60.094,0,0,0,9.3,12,60.973,60.973,0,0,0,11.957,9.31,58.017,58.017,0,0,0,14.07,6.02,56.888,56.888,0,0,0,15.507,2.11,54.155,54.155,0,0,0,22.206-4.54,57.208,57.208,0,0,0,17.98-12.45v11.24ZM681,1199.71a44.619,44.619,0,0,1-8.8,13.62,42.663,42.663,0,0,1-13.065,9.4,37.282,37.282,0,0,1-15.941,3.5,36.69,36.69,0,0,1-15.85-3.5,42.448,42.448,0,0,1-12.932-9.4,44.374,44.374,0,0,1-8.71-13.62,42.324,42.324,0,0,1,0-32.23,43.062,43.062,0,0,1,8.71-13.44,42.439,42.439,0,0,1,12.932-9.17,37.5,37.5,0,0,1,15.85-3.41,38.112,38.112,0,0,1,15.941,3.41,42.667,42.667,0,0,1,13.065,9.17,43.3,43.3,0,0,1,8.8,13.44A41.767,41.767,0,0,1,681,1199.71Zm57.982-68.95a3.889,3.889,0,0,0-1.124-2.79,3.982,3.982,0,0,0-3.011-1.17H725.5a3.963,3.963,0,0,0-2.787,1.08,3.734,3.734,0,0,0-1.169,2.88v106.26q0,3.96,4.136,3.96h9.35q3.954,0,3.955-3.96v-70.39a26.881,26.881,0,0,1,1.933-10.47,23.971,23.971,0,0,1,5.124-7.83,22.44,22.44,0,0,1,15.958-6.6,35.128,35.128,0,0,1,11.192,1.75,44.649,44.649,0,0,1,10.833,5.53c0.6,0.42,1.109.79,1.529,1.12a2.142,2.142,0,0,0,1.348.5,3.429,3.429,0,0,0,2.517-1.53l5.305-8.18a3.653,3.653,0,0,0,.449-1.8,4,4,0,0,0-1.3-2.97,25.808,25.808,0,0,0-2.382-2.07,55.055,55.055,0,0,0-6.877-4.45,36.589,36.589,0,0,0-6.788-2.78,41.087,41.087,0,0,0-7.417-1.44,85.611,85.611,0,0,0-8.765-.41,22.684,22.684,0,0,0-8.091,1.4,28.334,28.334,0,0,0-6.563,3.46,26.586,26.586,0,0,0-4.9,4.49,25.955,25.955,0,0,0-3.1,4.5v-8.09Zm103.835,110.26a4.342,4.342,0,0,0,1.259-3.28v-7.37a4.569,4.569,0,0,0-1.349-3.51,4.807,4.807,0,0,0-3.416-1.26,6.457,6.457,0,0,1-4.226-1.26c-1.019-.83-1.528-2.3-1.528-4.4v-77.76h12.5a4,4,0,0,0,3.012-.99,4.755,4.755,0,0,0,.944-3.33v-7.1a4.4,4.4,0,0,0-.944-3.24,4.255,4.255,0,0,0-3.012-.9h-12.5v-19.33c0-.71-0.031-1.39-0.09-2.02a4.153,4.153,0,0,0-.494-1.66,2.491,2.491,0,0,0-1.3-1.08,5.065,5.065,0,0,0-2.427-.18q-2.518.45-4.675,0.81c-1.2.24-2.353,0.43-3.461,0.58a14.6,14.6,0,0,0-2.2.41,4.783,4.783,0,0,0-2.157,1.12,3.177,3.177,0,0,0-.63,2.2v19.15H805.686a7.237,7.237,0,0,0-3.326.59c-0.72.39-1.079,1.36-1.079,2.92v8.36c0,1.56.359,2.56,1.079,3.01a6.408,6.408,0,0,0,3.326.68h10.428v77.94a24.572,24.572,0,0,0,2.113,10.92,18.339,18.339,0,0,0,5.439,6.75,20.39,20.39,0,0,0,7.507,3.46,35.979,35.979,0,0,0,8.316.99A4.592,4.592,0,0,0,842.815,1241.02Zm180.425-.04q4.23,0,4.23-3.96V1096.87a3.731,3.731,0,0,0-1.17-2.88,3.972,3.972,0,0,0-2.79-1.08h-9.35a3.977,3.977,0,0,0-3.01,1.17,3.881,3.881,0,0,0-1.12,2.79v45.04a57.46,57.46,0,0,0-17.983-12.46,54.313,54.313,0,0,0-22.205-4.54,56.759,56.759,0,0,0-15.553,2.12,58.206,58.206,0,0,0-14.025,6.02,61,61,0,0,0-11.956,9.31,60.1,60.1,0,0,0-9.3,12,58.834,58.834,0,0,0-6.023,14.11,58.643,58.643,0,0,0,0,31.2A58.21,58.21,0,0,0,919,1213.74a60.942,60.942,0,0,0,9.3,11.95,59.3,59.3,0,0,0,26.026,15.24,56.9,56.9,0,0,0,15.508,2.11,54.612,54.612,0,0,0,22.205-4.49,56.824,56.824,0,0,0,17.983-12.41v10.88c0,2.64,1.31,3.96,3.95,3.96h9.26Zm-15.55-40.73a43.328,43.328,0,0,1-8.8,13.4,42.667,42.667,0,0,1-13.065,9.17,38.111,38.111,0,0,1-15.94,3.41,37.506,37.506,0,0,1-15.851-3.41,42.439,42.439,0,0,1-12.932-9.17,43.126,43.126,0,0,1-8.71-13.4,42.437,42.437,0,0,1,0-32.27,44.392,44.392,0,0,1,8.71-13.62,42.448,42.448,0,0,1,12.932-9.4,36.691,36.691,0,0,1,15.851-3.5,37.281,37.281,0,0,1,15.94,3.5,42.663,42.663,0,0,1,13.065,9.4,44.6,44.6,0,0,1,8.8,13.62A41.8,41.8,0,0,1,1007.69,1200.25ZM1129.77,1215c-1.74,1.43-3.53,2.83-5.39,4.18a39.767,39.767,0,0,1-6.07,3.59,35.785,35.785,0,0,1-7.28,2.52,39.036,39.036,0,0,1-8.95.94,36.942,36.942,0,0,1-13.57-2.56,41.539,41.539,0,0,1-11.91-7.1,45.393,45.393,0,0,1-9.17-10.65,40.948,40.948,0,0,1-5.35-13.31h94.75q3.96,0,3.96-4.23a79.8,79.8,0,0,0-2.61-22.74,53.47,53.47,0,0,0-8.54-17.62,56.782,56.782,0,0,0-9.57-9.89,58.347,58.347,0,0,0-11.46-7.24,62.138,62.138,0,0,0-12.77-4.45,59.623,59.623,0,0,0-13.4-1.53,60.852,60.852,0,0,0-16.22,2.12,59.255,59.255,0,0,0-14.3,5.98,57.36,57.36,0,0,0-20.94,21.21,60.079,60.079,0,0,0-7.78,29.76,56.191,56.191,0,0,0,2.16,15.6,58.451,58.451,0,0,0,6.11,14.07,61.754,61.754,0,0,0,21.44,21.26,59.232,59.232,0,0,0,14.07,6.02,58.4,58.4,0,0,0,26.21,1.13,55.571,55.571,0,0,0,9.66-2.79,60.763,60.763,0,0,0,8.77-4.27,72.165,72.165,0,0,0,8.04-5.53,13.572,13.572,0,0,0,2.65-2.65,3.837,3.837,0,0,0,.77-2.12,3.087,3.087,0,0,0-.27-1.3,5.063,5.063,0,0,0-.72-1.12q-0.36-.45-1.08-1.44c-0.48-.6-1.09-1.41-1.84-2.43s-1.73-2.34-2.92-3.95a3.037,3.037,0,0,0-4.54-.99,16.035,16.035,0,0,0-1.76,1.35Zm-38.25-71.39a44.9,44.9,0,0,1,11.55-1.52,43.139,43.139,0,0,1,14.25,2.38,41.937,41.937,0,0,1,12.36,6.7,37.6,37.6,0,0,1,9.13,10.42,35.325,35.325,0,0,1,4.63,13.58h-81.27a41.2,41.2,0,0,1,6.74-15.33,45.5,45.5,0,0,1,11.78-11.55A40.558,40.558,0,0,1,1091.52,1143.61Zm106.31-12.85a3.891,3.891,0,0,0-1.13-2.79,3.977,3.977,0,0,0-3.01-1.17h-9.35a3.972,3.972,0,0,0-2.79,1.08,3.759,3.759,0,0,0-1.16,2.88v106.26c0,2.64,1.4,3.96,4.22,3.96h9.26q3.96,0,3.96-3.96v-66.44a24.684,24.684,0,0,1,2.92-12.13,29.412,29.412,0,0,1,7.42-8.9,32.264,32.264,0,0,1,9.97-5.44,33.245,33.245,0,0,1,10.61-1.84,29.529,29.529,0,0,1,13.67,2.87,25.3,25.3,0,0,1,8.94,7.46,29.985,29.985,0,0,1,4.86,10.21,42.9,42.9,0,0,1,1.48,11.01v61.31a8.193,8.193,0,0,0,.94,4.5c0.63,0.9,2.06,1.35,4.28,1.35h6.65a5.5,5.5,0,0,0,4-1.53,6.124,6.124,0,0,0,1.57-4.59v-61.04a60.723,60.723,0,0,0-2.92-19.06,45.006,45.006,0,0,0-8.63-15.51,40.456,40.456,0,0,0-14.16-10.42,46.876,46.876,0,0,0-19.51-3.83,35.935,35.935,0,0,0-10.7,1.49,39.281,39.281,0,0,0-8.67,3.86,41.041,41.041,0,0,0-7.06,5.4,61.835,61.835,0,0,0-5.66,6.16v-11.15Zm128.64,110.26a4.339,4.339,0,0,0,1.26-3.28v-7.37a4.566,4.566,0,0,0-1.35-3.51,4.807,4.807,0,0,0-3.41-1.26,6.467,6.467,0,0,1-4.23-1.26c-1.02-.83-1.53-2.3-1.53-4.4v-77.76h12.5a4,4,0,0,0,3.01-.99,4.751,4.751,0,0,0,.94-3.33v-7.1a4.4,4.4,0,0,0-.94-3.24,4.248,4.248,0,0,0-3.01-.9h-12.5v-19.33c0-.71-0.03-1.39-0.09-2.02a4.135,4.135,0,0,0-.49-1.66,2.5,2.5,0,0,0-1.31-1.08,5.032,5.032,0,0,0-2.42-.18q-2.52.45-4.68,0.81c-1.2.24-2.35,0.43-3.46,0.58a14.534,14.534,0,0,0-2.2.41,4.8,4.8,0,0,0-2.16,1.12,3.177,3.177,0,0,0-.63,2.2v19.15h-10.43a7.208,7.208,0,0,0-3.32.59c-0.72.39-1.08,1.36-1.08,2.92v8.36c0,1.56.36,2.56,1.08,3.01a6.383,6.383,0,0,0,3.32.68h10.43v77.94a24.7,24.7,0,0,0,2.11,10.92,18.441,18.441,0,0,0,5.44,6.75,20.4,20.4,0,0,0,7.51,3.46,36.019,36.019,0,0,0,8.32.99A4.59,4.59,0,0,0,1326.47,1241.02Zm115.34-4a3.891,3.891,0,0,0,1.13,2.79,3.977,3.977,0,0,0,3.01,1.17h9.35a3.972,3.972,0,0,0,2.79-1.08,3.759,3.759,0,0,0,1.16-2.88V1130.67c0-2.64-1.4-3.96-4.22-3.96h-9.26q-3.96,0-3.96,3.96v10.97a57.06,57.06,0,0,0-17.98-12.45,54.12,54.12,0,0,0-22.2-4.54,56.805,56.805,0,0,0-15.56,2.11,59.551,59.551,0,0,0-25.98,15.24,61.26,61.26,0,0,0-9.3,11.95,58.247,58.247,0,0,0-6.02,45.27,58.428,58.428,0,0,0,6.02,14.11,60.826,60.826,0,0,0,21.26,21.31,58.034,58.034,0,0,0,14.07,6.02,56.867,56.867,0,0,0,15.51,2.11,54.12,54.12,0,0,0,22.2-4.54,57.06,57.06,0,0,0,17.98-12.45v11.24Zm-2.33-37.31a44.749,44.749,0,0,1-8.8,13.62,42.649,42.649,0,0,1-13.07,9.4,37.275,37.275,0,0,1-15.94,3.5,36.716,36.716,0,0,1-15.85-3.5,42.4,42.4,0,0,1-12.93-9.4,44.5,44.5,0,0,1-8.71-13.62,42.3,42.3,0,0,1,0-32.23,43.186,43.186,0,0,1,8.71-13.44,42.394,42.394,0,0,1,12.93-9.17,37.531,37.531,0,0,1,15.85-3.41,38.1,38.1,0,0,1,15.94,3.41,42.654,42.654,0,0,1,13.07,9.17,43.427,43.427,0,0,1,8.8,13.44A41.815,41.815,0,0,1,1439.48,1199.71Zm58.34-102.84a3.881,3.881,0,0,0-1.12-2.79,4,4,0,0,0-3.02-1.17h-9.34a3.972,3.972,0,0,0-2.79,1.08,3.731,3.731,0,0,0-1.17,2.88v140.15q0,3.96,4.22,3.96h9.26q3.96,0,3.96-3.96V1096.87Zm170.36,140.15a3.881,3.881,0,0,0,1.12,2.79,4,4,0,0,0,3.02,1.17h9.35a3.966,3.966,0,0,0,2.78-1.08,3.731,3.731,0,0,0,1.17-2.88V1130.67q0-3.96-4.22-3.96h-9.26q-3.96,0-3.96,3.96v10.97a57.287,57.287,0,0,0-17.98-12.45,54.167,54.167,0,0,0-22.21-4.54,56.786,56.786,0,0,0-15.55,2.11,59.551,59.551,0,0,0-25.98,15.24,60.5,60.5,0,0,0-9.3,11.95,58.23,58.23,0,0,0-6.03,14.07,58.723,58.723,0,0,0,0,31.2,58.854,58.854,0,0,0,6.03,14.11,59.675,59.675,0,0,0,9.3,12,60.992,60.992,0,0,0,11.96,9.31,57.867,57.867,0,0,0,14.07,6.02,56.848,56.848,0,0,0,15.5,2.11,54.167,54.167,0,0,0,22.21-4.54,57.287,57.287,0,0,0,17.98-12.45v11.24Zm-2.33-37.31a44.749,44.749,0,0,1-8.8,13.62,42.769,42.769,0,0,1-13.07,9.4,37.275,37.275,0,0,1-15.94,3.5,36.684,36.684,0,0,1-15.85-3.5,42.4,42.4,0,0,1-12.93-9.4,44.318,44.318,0,0,1-8.71-13.62,42.3,42.3,0,0,1,0-32.23,43.009,43.009,0,0,1,8.71-13.44,42.394,42.394,0,0,1,12.93-9.17,37.5,37.5,0,0,1,15.85-3.41,38.1,38.1,0,0,1,15.94,3.41,42.774,42.774,0,0,1,13.07,9.17,43.427,43.427,0,0,1,8.8,13.44A41.815,41.815,0,0,1,1665.85,1199.71Zm39.1,29.58a41.034,41.034,0,0,0,9.62,7.46,43.964,43.964,0,0,0,11.28,4.41,50.193,50.193,0,0,0,11.64,1.43,56.554,56.554,0,0,0,16.63-2.33,39.706,39.706,0,0,0,13.17-6.7,30.659,30.659,0,0,0,8.63-10.61,31.155,31.155,0,0,0,3.11-14.07,28.242,28.242,0,0,0-2.79-12.72,30.5,30.5,0,0,0-7.82-9.84,49.034,49.034,0,0,0-12.09-7.29,91.8,91.8,0,0,0-15.6-5.03,61.46,61.46,0,0,1-7.64-2.43,39.088,39.088,0,0,1-7.28-3.68,23.408,23.408,0,0,1-5.49-4.81,8.988,8.988,0,0,1-2.16-5.8,13.959,13.959,0,0,1,1.76-7.15,15.152,15.152,0,0,1,4.67-4.99,20.2,20.2,0,0,1,6.61-2.87,32.087,32.087,0,0,1,7.64-.9,24.77,24.77,0,0,1,7.6,1.03,21.667,21.667,0,0,1,5.71,2.79,25.241,25.241,0,0,1,4.49,4c1.32,1.5,2.67,3.05,4.05,4.67a7.78,7.78,0,0,0,2.33,2.07q1.08,0.54,3.15-.63l7.01-5.3c1.14-.84,1.68-1.7,1.62-2.57a7.339,7.339,0,0,0-1.17-3.1c-2.34-3.17-4.58-5.98-6.74-8.4a34.268,34.268,0,0,0-7.1-6.12,30.122,30.122,0,0,0-8.86-3.73,49.146,49.146,0,0,0-11.91-1.26,48.254,48.254,0,0,0-15.42,2.34,35.919,35.919,0,0,0-11.95,6.57,29.656,29.656,0,0,0-7.78,10.15,30.509,30.509,0,0,0-2.79,13.13,28.767,28.767,0,0,0,2.34,11.82,28.127,28.127,0,0,0,6.79,9.35,44.58,44.58,0,0,0,10.79,7.19,79.144,79.144,0,0,0,14.42,5.26q4.59,1.26,9.22,2.43a38.674,38.674,0,0,1,8.36,3.1,18.291,18.291,0,0,1,6.07,4.9,12.28,12.28,0,0,1,2.34,7.82,12.559,12.559,0,0,1-2.48,7.78,19.783,19.783,0,0,1-6.11,5.35,29.243,29.243,0,0,1-7.78,3.05,32.592,32.592,0,0,1-7.55.99,25.973,25.973,0,0,1-6.02-.85,32.569,32.569,0,0,1-6.92-2.56,28.08,28.08,0,0,1-6.34-4.36,15.987,15.987,0,0,1-4.27-6.16,7.943,7.943,0,0,0-1.98-2.74c-0.84-.75-2.01-0.83-3.51-0.23l-8.54,3.96a6.191,6.191,0,0,0-1.39.9,2.681,2.681,0,0,0-.72,1.03,2.548,2.548,0,0,0-.04,1.44,18.752,18.752,0,0,0,.63,2.2A29.96,29.96,0,0,0,1704.95,1229.29Zm88.82,0a41.034,41.034,0,0,0,9.62,7.46,43.964,43.964,0,0,0,11.28,4.41,50.193,50.193,0,0,0,11.64,1.43,56.623,56.623,0,0,0,16.64-2.33,39.9,39.9,0,0,0,13.17-6.7,30.886,30.886,0,0,0,8.63-10.61,31.283,31.283,0,0,0,3.1-14.07,28.242,28.242,0,0,0-2.79-12.72,30.365,30.365,0,0,0-7.82-9.84,49.034,49.034,0,0,0-12.09-7.29,91.8,91.8,0,0,0-15.6-5.03,61.994,61.994,0,0,1-7.64-2.43,39.088,39.088,0,0,1-7.28-3.68,23.408,23.408,0,0,1-5.49-4.81,8.988,8.988,0,0,1-2.16-5.8,13.959,13.959,0,0,1,1.76-7.15,15.152,15.152,0,0,1,4.67-4.99,20.2,20.2,0,0,1,6.61-2.87,32.087,32.087,0,0,1,7.64-.9,24.77,24.77,0,0,1,7.6,1.03,21.516,21.516,0,0,1,5.71,2.79,25.241,25.241,0,0,1,4.49,4c1.32,1.5,2.67,3.05,4.05,4.67a7.8,7.8,0,0,0,2.34,2.07c0.71,0.36,1.76.15,3.14-.63l7.01-5.3c1.14-.84,1.68-1.7,1.62-2.57a7.339,7.339,0,0,0-1.17-3.1c-2.33-3.17-4.58-5.98-6.74-8.4a34.012,34.012,0,0,0-7.1-6.12,30.122,30.122,0,0,0-8.86-3.73,49.088,49.088,0,0,0-11.91-1.26,48.254,48.254,0,0,0-15.42,2.34,35.919,35.919,0,0,0-11.95,6.57,29.656,29.656,0,0,0-7.78,10.15,30.509,30.509,0,0,0-2.79,13.13,28.767,28.767,0,0,0,2.34,11.82,28.127,28.127,0,0,0,6.79,9.35,44.777,44.777,0,0,0,10.79,7.19,78.982,78.982,0,0,0,14.43,5.26q4.575,1.26,9.21,2.43a38.674,38.674,0,0,1,8.36,3.1,18.291,18.291,0,0,1,6.07,4.9,12.28,12.28,0,0,1,2.34,7.82,12.559,12.559,0,0,1-2.48,7.78,19.67,19.67,0,0,1-6.11,5.35,29.31,29.31,0,0,1-7.77,3.05,32.74,32.74,0,0,1-7.56.99,25.973,25.973,0,0,1-6.02-.85,32.569,32.569,0,0,1-6.92-2.56,28.08,28.08,0,0,1-6.34-4.36,15.987,15.987,0,0,1-4.27-6.16,7.943,7.943,0,0,0-1.98-2.74c-0.84-.75-2.01-0.83-3.5-0.23l-8.55,3.96a6.432,6.432,0,0,0-1.39.9,2.681,2.681,0,0,0-.72,1.03,2.548,2.548,0,0,0-.04,1.44,20.946,20.946,0,0,0,.63,2.2A29.96,29.96,0,0,0,1793.77,1229.29Zm108.15-98.53a3.923,3.923,0,0,0-1.12-2.79,4,4,0,0,0-3.02-1.17h-9.35a3.966,3.966,0,0,0-2.78,1.08,3.731,3.731,0,0,0-1.17,2.88v106.26q0,3.96,4.22,3.96h9.26q3.96,0,3.96-3.96V1130.76Zm0-33.98a3.89,3.89,0,0,0-1.12-2.84,4.123,4.123,0,0,0-3.02-1.12h-9.35a3.966,3.966,0,0,0-2.78,1.08,3.731,3.731,0,0,0-1.17,2.88v9.26q0,3.945,4.22,3.95h9.26q3.96,0,3.96-3.95v-9.26Zm22.65,132.51a41.24,41.24,0,0,0,9.62,7.46,44.175,44.175,0,0,0,11.29,4.41,50.064,50.064,0,0,0,11.64,1.43,56.6,56.6,0,0,0,16.63-2.33,39.9,39.9,0,0,0,13.17-6.7,30.772,30.772,0,0,0,8.63-10.61,31.151,31.151,0,0,0,3.1-14.07,28.372,28.372,0,0,0-2.78-12.72,30.4,30.4,0,0,0-7.83-9.84,48.665,48.665,0,0,0-12.09-7.29,91.22,91.22,0,0,0-15.6-5.03,62.539,62.539,0,0,1-7.64-2.43,39.4,39.4,0,0,1-7.28-3.68,23.35,23.35,0,0,1-5.48-4.81,8.988,8.988,0,0,1-2.16-5.8,13.956,13.956,0,0,1,1.75-7.15,15.182,15.182,0,0,1,4.68-4.99,20.108,20.108,0,0,1,6.61-2.87,32.026,32.026,0,0,1,7.64-.9,24.748,24.748,0,0,1,7.59,1.03,21.516,21.516,0,0,1,5.71,2.79,24.962,24.962,0,0,1,4.5,4c1.31,1.5,2.66,3.05,4.04,4.67a7.8,7.8,0,0,0,2.34,2.07q1.08,0.54,3.15-.63l7.01-5.3c1.14-.84,1.68-1.7,1.62-2.57a7.339,7.339,0,0,0-1.17-3.1c-2.34-3.17-4.59-5.98-6.74-8.4a34.062,34.062,0,0,0-7.11-6.12,30.06,30.06,0,0,0-8.85-3.73,49.2,49.2,0,0,0-11.91-1.26,48.166,48.166,0,0,0-15.42,2.34,35.968,35.968,0,0,0-11.96,6.57,29.628,29.628,0,0,0-7.77,10.15,30.509,30.509,0,0,0-2.79,13.13,28.767,28.767,0,0,0,2.34,11.82,28.1,28.1,0,0,0,6.78,9.35,44.975,44.975,0,0,0,10.79,7.19,79.533,79.533,0,0,0,14.43,5.26q4.59,1.26,9.22,2.43a38.871,38.871,0,0,1,8.36,3.1,18.353,18.353,0,0,1,6.06,4.9,12.28,12.28,0,0,1,2.34,7.82,12.552,12.552,0,0,1-2.47,7.78,19.9,19.9,0,0,1-6.11,5.35,29.243,29.243,0,0,1-7.78,3.05,32.728,32.728,0,0,1-7.55.99,26.049,26.049,0,0,1-6.03-.85,32.974,32.974,0,0,1-6.92-2.56,28.08,28.08,0,0,1-6.34-4.36,16.1,16.1,0,0,1-4.27-6.16,8.049,8.049,0,0,0-1.97-2.74c-0.84-.75-2.01-0.83-3.51-0.23l-8.54,3.96a5.967,5.967,0,0,0-1.39.9,2.681,2.681,0,0,0-.72,1.03,2.539,2.539,0,0,0-.05,1.44,20.946,20.946,0,0,0,.63,2.2A30.247,30.247,0,0,0,1924.57,1229.29Zm123.08,11.73a4.339,4.339,0,0,0,1.26-3.28v-7.37a4.566,4.566,0,0,0-1.35-3.51,4.815,4.815,0,0,0-3.42-1.26,6.419,6.419,0,0,1-4.22-1.26c-1.02-.83-1.53-2.3-1.53-4.4v-77.76h12.49a4.021,4.021,0,0,0,3.02-.99,4.8,4.8,0,0,0,.94-3.33v-7.1a4.445,4.445,0,0,0-.94-3.24,4.276,4.276,0,0,0-3.02-.9h-12.49v-19.33c0-.71-0.03-1.39-0.09-2.02a4.141,4.141,0,0,0-.5-1.66,2.477,2.477,0,0,0-1.3-1.08,5.075,5.075,0,0,0-2.43-.18c-1.68.3-3.23,0.57-4.67,0.81-1.2.24-2.36,0.43-3.46,0.58a14.752,14.752,0,0,0-2.21.41,4.7,4.7,0,0,0-2.15,1.12,3.177,3.177,0,0,0-.63,2.2v19.15h-10.43a7.256,7.256,0,0,0-3.33.59c-0.72.39-1.08,1.36-1.08,2.92v8.36c0,1.56.36,2.56,1.08,3.01a6.424,6.424,0,0,0,3.33.68h10.43v77.94a24.561,24.561,0,0,0,2.11,10.92,18.341,18.341,0,0,0,5.44,6.75,20.4,20.4,0,0,0,7.51,3.46,35.871,35.871,0,0,0,8.31.99A4.6,4.6,0,0,0,2047.65,1241.02Zm115.34-4a3.881,3.881,0,0,0,1.12,2.79,3.992,3.992,0,0,0,3.01,1.17h9.35a3.972,3.972,0,0,0,2.79-1.08,3.731,3.731,0,0,0,1.17-2.88V1130.67q0-3.96-4.23-3.96h-9.26q-3.945,0-3.95,3.96v10.97a57.287,57.287,0,0,0-17.98-12.45,54.167,54.167,0,0,0-22.21-4.54,56.733,56.733,0,0,0-15.55,2.11,59.551,59.551,0,0,0-25.98,15.24,60.929,60.929,0,0,0-9.31,11.95,58.6,58.6,0,0,0-6.02,14.07,58.723,58.723,0,0,0,0,31.2,59.229,59.229,0,0,0,6.02,14.11,60.086,60.086,0,0,0,9.31,12,60.992,60.992,0,0,0,11.96,9.31,57.867,57.867,0,0,0,14.07,6.02,56.848,56.848,0,0,0,15.5,2.11,54.167,54.167,0,0,0,22.21-4.54,57.287,57.287,0,0,0,17.98-12.45v11.24Zm-2.34-37.31a44.378,44.378,0,0,1-8.8,13.62,42.605,42.605,0,0,1-13.06,9.4,37.275,37.275,0,0,1-15.94,3.5,36.684,36.684,0,0,1-15.85-3.5,42.4,42.4,0,0,1-12.93-9.4,44.134,44.134,0,0,1-8.71-13.62,42.3,42.3,0,0,1,0-32.23,42.833,42.833,0,0,1,8.71-13.44,42.394,42.394,0,0,1,12.93-9.17,37.5,37.5,0,0,1,15.85-3.41,38.1,38.1,0,0,1,15.94,3.41,42.609,42.609,0,0,1,13.06,9.17,43.073,43.073,0,0,1,8.8,13.44A41.7,41.7,0,0,1,2160.65,1199.71Zm58.44-68.95a3.891,3.891,0,0,0-1.13-2.79,3.977,3.977,0,0,0-3.01-1.17h-9.35a3.972,3.972,0,0,0-2.79,1.08,3.731,3.731,0,0,0-1.17,2.88v106.26q0,3.96,4.23,3.96h9.26q3.96,0,3.96-3.96v-66.44a24.684,24.684,0,0,1,2.92-12.13,29.382,29.382,0,0,1,7.41-8.9,32.427,32.427,0,0,1,9.98-5.44,33.245,33.245,0,0,1,10.61-1.84,29.529,29.529,0,0,1,13.67,2.87,25.387,25.387,0,0,1,8.94,7.46,29.985,29.985,0,0,1,4.86,10.21,43.348,43.348,0,0,1,1.48,11.01v61.31a8.1,8.1,0,0,0,.94,4.5c0.63,0.9,2.06,1.35,4.27,1.35h6.66a5.516,5.516,0,0,0,4-1.53,6.164,6.164,0,0,0,1.57-4.59v-61.04a60.723,60.723,0,0,0-2.92-19.06,45.006,45.006,0,0,0-8.63-15.51,40.456,40.456,0,0,0-14.16-10.42,46.909,46.909,0,0,0-19.51-3.83,35.888,35.888,0,0,0-10.7,1.49,38.869,38.869,0,0,0-8.67,3.86,41.041,41.041,0,0,0-7.06,5.4,61.835,61.835,0,0,0-5.66,6.16v-11.15Zm128.64,110.26a4.339,4.339,0,0,0,1.26-3.28v-7.37a4.566,4.566,0,0,0-1.35-3.51,4.815,4.815,0,0,0-3.42-1.26,6.456,6.456,0,0,1-4.22-1.26c-1.02-.83-1.53-2.3-1.53-4.4v-77.76h12.5a4,4,0,0,0,3.01-.99,4.751,4.751,0,0,0,.94-3.33v-7.1a4.4,4.4,0,0,0-.94-3.24,4.248,4.248,0,0,0-3.01-.9h-12.5v-19.33c0-.71-0.03-1.39-0.09-2.02a4.135,4.135,0,0,0-.49-1.66,2.5,2.5,0,0,0-1.31-1.08,5.045,5.045,0,0,0-2.42-.18q-2.52.45-4.68,0.81c-1.2.24-2.35,0.43-3.46,0.58a14.534,14.534,0,0,0-2.2.41,4.8,4.8,0,0,0-2.16,1.12,3.177,3.177,0,0,0-.63,2.2v19.15H2310.6a7.18,7.18,0,0,0-3.32.59c-0.72.39-1.08,1.36-1.08,2.92v8.36c0,1.56.36,2.56,1.08,3.01a6.359,6.359,0,0,0,3.32.68h10.43v77.94a24.561,24.561,0,0,0,2.11,10.92,18.341,18.341,0,0,0,5.44,6.75,20.4,20.4,0,0,0,7.51,3.46,36,36,0,0,0,8.31.99A4.6,4.6,0,0,0,2347.73,1241.02Z"/>
</svg>
