<svg xmlns="http://www.w3.org/2000/svg" width="2656" height="1038" viewBox="0 0 2656 1038">
  <defs>
    <style>
      .cls-1 {
        fill: #fff;
        fill-rule: evenodd;
      }
    </style>
  </defs>
  <path id="ibee_copia" data-name="ibee copia" class="cls-1" d="M261.09,135.485c0,54.314-44.309,98.622-97.193,98.622a98.82,98.82,0,0,1-98.622-98.622c0-52.884,44.309-97.192,98.622-97.192C216.781,38.293,261.09,82.6,261.09,135.485ZM163.9,988.78c-62.889,0-114.344-51.455-114.344-114.344V379.9c0-62.889,51.455-114.344,114.344-114.344S278.241,317.007,278.241,379.9v494.54C278.241,937.325,226.787,988.78,163.9,988.78ZM715.542,268.411c-48.6,0-97.193,10-138.643,27.156V162.642c0-62.889-48.6-112.915-110.056-112.915H455.408c-57.172,1.429-105.768,50.026-105.768,107.2V880.153c0,61.46,47.167,108.627,108.627,108.627,31.445,0,58.6-12.864,78.612-34.3,52.884,28.586,114.344,45.733,178.663,45.733,201.532,0,365.9-164.366,365.9-365.9S917.074,268.411,715.542,268.411Zm0,504.544c-75.753,0-138.643-62.889-138.643-138.642,0-77.183,62.89-138.643,138.643-138.643s138.642,61.46,138.642,138.643C854.184,710.066,791.3,772.955,715.542,772.955ZM1835.98,588.575c-22.87-182.951-177.23-320.164-361.61-320.164-161.52,0-285.87,101.48-335.89,222.971-38.59,92.905-40.02,205.82,4.29,297.3,57.17,118.633,185.81,211.533,350.18,211.533,72.89,0,142.93-18.577,204.39-54.309,45.73-27.157,61.46-87.188,34.3-134.355-27.16-45.738-87.19-62.889-132.93-34.3-91.47,50.026-210.1,35.732-272.99-60.031h380.19C1787.38,717.212,1844.56,674.333,1835.98,588.575Zm-508.83-34.3c12.86-54.313,74.32-105.768,145.79-105.768,72.89,0,132.92,51.455,145.79,105.768H1327.15Zm1277.66,34.3c-22.87-182.951-177.23-320.164-361.61-320.164-161.51,0-285.86,101.48-335.89,222.971-38.59,92.905-40.02,205.82,4.29,297.3,57.17,118.633,185.81,211.533,350.18,211.533,72.89,0,142.93-18.577,204.39-54.309,45.74-27.157,61.46-87.188,34.3-134.355-27.15-45.738-87.18-62.889-132.92-34.3-91.48,50.026-210.11,35.732-273-60.031h380.2C2556.22,717.212,2613.39,674.333,2604.81,588.575Zm-508.83-34.3c12.86-54.313,74.32-105.768,145.79-105.768,72.89,0,132.92,51.455,145.79,105.768H2095.98Z"/>
</svg>
