<svg xmlns="http://www.w3.org/2000/svg" width="1000" height="1000" viewBox="0 0 1000 1000">
  <defs>
    <style>
      .cls-1 {
        fill: #323232;
        fill-rule: evenodd;
      }
    </style>
  </defs>
  <path id="inventario" class="cls-1" d="M490.083,705.08a175.405,175.405,0,0,0-18.889-12.539,177.649,177.649,0,0,0-21.269-9.83l-45.552-170L904.722,378.64l53.835,200.912ZM339.15,269.3l338.074-90.587,53.835,200.913L392.985,470.207ZM232.091,74.522L392.519,673.246a198.372,198.372,0,0,0-29.047,3.642,133.544,133.544,0,0,0-26.528,9.179L188,130.182H123.459v22.9H40.77V51.056h82.689V73.182H232.091v1.34Zm132.125,632.19a123.409,123.409,0,0,1,151.869,87.681c17.515,65.369-21.334,133.055-87.94,150.9-65.673,17.6-133.128-21.605-150.644-86.975C259.657,791.729,298.544,724.309,364.216,706.712ZM411.58,883.476c31.97-8.987,50.931-41.517,42.685-72.518a59.5,59.5,0,1,0-114.945,30.8C348.015,872.638,380.406,892.239,411.58,883.476ZM534.4,758.427l384.439-103.01,14.752,55.058L550.119,813.226a214.112,214.112,0,0,0-5.833-29.5A162.638,162.638,0,0,0,534.4,758.427Z"/>
</svg>
