<svg xmlns="http://www.w3.org/2000/svg" width="1000" height="1000" viewBox="0 0 1000 1000">
  <defs>
    <style>
      .cls-1 {
        fill: #323232;
        fill-rule: evenodd;
      }
    </style>
  </defs>
  <path id="inventario" class="cls-1" d="M501,31c46.241,0,84,37.516,84,83H690v95c1.317,19.711-14.949,33-33,33H345c-18.093.371-33-14.805-33-33V114H417C417,68.516,454.691,31,501,31Zm0,39c-25-.156-45,21.74-45,44,0,24.3,20,44,45,44,23.514,0,43-19.7,43-44C544,89.683,524.514,69.844,501,70ZM292,114v60H252a33.239,33.239,0,0,0-33,33V876a33.159,33.159,0,0,0,33,33H749c19.2,0,34-14.873,34-33V207c0-18-14.8-33-34-33-11.883,0-24.179-.165-39,0V115c16.3-.11,27.049-0.985,39-1a93.864,93.864,0,0,1,94,94V874c0,52.748-41.6,95-94,95H252c-51.638,0-94-42.252-94-95V208c0-48.457,42.362-94,94-94h40ZM689.317,500.107l-206.23,206.23a42.167,42.167,0,0,1-59.633,0c-0.11-.11-0.2-0.23-0.308-0.341-0.329-.257-0.675-0.478-1-0.747l-108.1-89.838a42.167,42.167,0,0,1,53.9-64.859l82.822,68.832,178.909-178.91A42.167,42.167,0,0,1,689.317,500.107Z"/>
</svg>
