<svg id="Grupo_1" data-name="Grupo 1" xmlns="http://www.w3.org/2000/svg" width="1000" height="1000" viewBox="0 0 1000 1000">
  <defs>
    <style>
      .cls-1 {
        fill: #323232;
        fill-rule: evenodd;
      }
    </style>
  </defs>
  <path id="laboratorio" class="cls-1" d="M135.183,972.989V859.876h35.191V312.732L339,146V356H251l-0.184,503.876H471.722c-9.8-15.063-18.9-39.173-20.191-70.411-1-24.018-20.072-47.9-23.52-57.7-10.341-29.374-1.3-76.233,49.807-72.809,20.659,1.384,32.909,16.877,47.041,16.485,17.59-.487,23.27-12.546,40.122-15.111,47.485-7.229,64.625,23.205,59.493,59.071-2.734,19.106-19.869,38.169-24.9,59.072-4.19,17.393-2.112,27.516-4.151,43.96-1.509,12.173-8.86,26.475-16.808,37.441H859.105V972.989H135.183ZM524.859,792.212c-40.21,0-36.03,42.709-33.382,67.664h65.867C559.423,834.944,563.954,792.212,524.859,792.212ZM640.42,578.351a15.082,15.082,0,1,1-15.082-15.082A15.081,15.081,0,0,1,640.42,578.351Zm-37.7,40.218a15.082,15.082,0,1,1-15.082-15.082A15.082,15.082,0,0,1,602.716,618.569Zm-148.3,0a15.082,15.082,0,1,1-15.081-15.082A15.081,15.081,0,0,1,454.412,618.569Zm-30.163-40.218a15.082,15.082,0,1,1-15.082-15.082A15.081,15.081,0,0,1,424.249,578.351ZM665.556,274.2V402.4l-72.9,103.059H559.984v50.272H537.362V633.65H502.171V555.728H472.008V505.456h-27.65L368.949,402.4V324.475H630.366L576,211H527l51,105H520L466,211H400l49.9,104.962H397.113l-28.164-61.868V63.059H459.44V35.41H580.093v27.65H668.07v148.3H637.906Z"/>
</svg>
