<svg xmlns="http://www.w3.org/2000/svg" width="1000" height="1000" viewBox="0 0 1000 1000">
  <defs>
    <style>
      .cls-1 {
        fill: #fff;
      }

      .cls-2 {
        fill: #152c69;
      }

      .cls-2, .cls-3 {
        fill-rule: evenodd;
      }

      .cls-3 {
        fill: #0d92b3;
      }
    </style>
  </defs>
  <rect id="Rectángulo_1" data-name="Rectángulo 1" class="cls-1" width="1000" height="1000" rx="180" ry="180"/>
  <path id="Elipse_1_copia" data-name="Elipse 1 copia" class="cls-2" d="M687.366,565.285c0,36.8-6.543,71.66-26.489,91.606-14.348,14.348-27.244,14.348-35.318,14.348-28.97,0-51.873-23.231-51.873-50.77,0-28.93,11.037-28.93,11.037-60.7a101.54,101.54,0,1,0-101.54,101.54h14.348c27.912,0,50.77,22.953,50.77,51.873a51.076,51.076,0,0,1-50.77,50.77H483.183c-59.812,0-100.948-26.715-106.415-30.456A50.772,50.772,0,0,1,279,714.283V290.465a50.77,50.77,0,0,1,101.54,0v92.71s40.1-27.592,102.643-27.592C595.909,355.583,687.366,446.92,687.366,565.285Zm-357.135-351.7a45.713,45.713,0,1,1,45.713-45.713A45.713,45.713,0,0,1,330.231,213.582Z"/>
  <path id="Elipse_1_copia_5" data-name="Elipse 1 copia 5" class="cls-3" d="M422.48,344.546a28.826,28.826,0,0,1-28.7-28.7c0-19.4,9.7-36.422,91.606-36.422,153.744,0,279.234,125.071,279.234,280.338,0,35.284-5.292,73.855-22.074,98.229-6.839,9.932-15.942,12.14-23.177,12.14-16.248,0-29.249-12.566-29.249-28.219,0-16.9,14.9-27.369,14.9-82.15,0-121.919-98.83-220.738-219.635-220.738M389.369,762.845c15.968,0,29.248,16.556,96.021,16.556,90.522-.9,124.257-47.459,145.688-47.459a30.171,30.171,0,0,1,29.8,29.8c0,5.909-3.241,14.277-9.933,20.97C629.226,804.43,549.709,839,485.39,839c-35.978,0-71.789-5.472-96.315-14.253-16.172-5.79-29.506-15.653-29.506-32.1A29.588,29.588,0,0,1,389.369,762.845ZM653.8,708.878a29.746,29.746,0,1,1,29.746,29.746A29.746,29.746,0,0,1,653.8,708.878Z"/>
</svg>
