<svg xmlns="http://www.w3.org/2000/svg" width="1000" height="1000" viewBox="0 0 1000 1000">
  <defs>
    <style>
      .cls-1 {
        fill: #323232;
        fill-rule: evenodd;
      }
    </style>
  </defs>
  <path id="mis_abonos" data-name="mis abonos" class="cls-1" d="M678.629,973.02A297.107,297.107,0,0,1,381,675.39c0-163.321,133.387-295.826,297.629-295.826,163.912,0,295.826,132.5,295.826,295.826C974.455,840.719,842.541,973.02,678.629,973.02Zm55.919-418.486c9.649,14.474,5.411,39.684,5.411,39.684h77.564s-1.7-56.361-28.861-84.779c-31.182-32.621-88.387-37.88-88.387-37.88V435.483H671.414v36.076S552.362,471.01,552.362,585.2c0,102.774,119.052,119.052,119.052,119.052v113.64s-27.21-8.206-39.684-25.253c-14.439-19.734-7.215-48.7-7.215-48.7H545.147s-7.624,60.921,30.665,99.21c40.723,40.722,95.6,37.88,95.6,37.88v54.114h28.861V881.025s124.463,0.845,124.463-122.659c0-97.921-124.463-124.464-124.463-124.464V534.693S724.369,539.266,734.548,554.534Zm-106.425,23.45c0-38.184,43.291-43.291,43.291-43.291v91.994S628.123,622.151,628.123,577.984Zm117.248,187.6c0,49.707-45.1,52.31-45.1,52.31V711.466S745.371,727.909,745.371,765.581ZM664,348s27.284-15.367,47-37c15.861-17.4,25-42,25-42v84a296.974,296.974,0,0,0-36-5A307.941,307.941,0,0,0,664,348ZM370.49,378.747C79.685,375.32-71.987,212.976,95.721,99.535c84.564-57.194,209.7-73.433,297.39-72.387,87.8,1.047,209.357,20.3,285.855,79.326C830.956,223.748,660.756,382.168,370.49,378.747ZM556.249,144.566c-29.1-47.474-147.312-56.735-147.312-56.735l-1.069-29.11s18.845,1.374,27.566,5.433c8.656,4.029,6.81,11.292,6.81,11.292l66.019,0.786s-10.273-15.612-34.621-22.8c-25.474-7.52-66.3-9.109-66.3-9.109l-0.263-7.16-19.466-.232-0.7,7.148s-83.422-2.3-102.59,26.81c-22.566,34.264,95.618,44.283,95.618,44.283l-6.49,66.174s-35.343-6.5-48.466-18.49c-13.883-12.691.04-28.951,0.04-28.951L235.3,132.84s-35.446,37.05-1.958,67.3c43.324,39.128,134.5,38.337,134.5,38.337L360.92,309.1l56.161,0.663-2.6-70.735S610.915,233.737,556.249,144.566ZM412.385,181.809l-2.311-62.987s49.468,8.184,54.55,28.809C472.5,179.605,412.385,181.809,412.385,181.809ZM348.482,69.57C351.564,59.335,385.5,58.454,385.5,58.454l-2.61,26.611S344.411,83.095,348.482,69.57ZM210,386c154.482,42.316,294,11,294,11s-32.889,21.62-58,46a362.216,362.216,0,0,0-45,54s-91.315,3.337-199-28C46.882,423.859,26,333,26,333V270S47.6,341.516,210,386ZM163,496c114.028,44.906,217,38,217,38s-9.539,22.375-16,43a372.812,372.812,0,0,0-10,40s-106.877-3.043-211-52C53.724,523.024,26,463,26,463V390S46.349,450.061,163,496Zm-53,95c109.059,59.629,235,70,235,70s3.05,8.111,4,29c1.046,23.008,4,43,4,43s-139.78-13.043-237-69c-77.289-44.485-90-93-90-93V507S43.125,554.436,110,591Zm19,129c104.259,58.535,235,60,235,60s3.363,11.326,12,30a419.848,419.848,0,0,0,23,42s-141.1,2.42-253-53C75.184,763.926,26.241,705.27,26.241,705.27L26,630S58.222,680.263,129,720Zm20,117c132.279,61.8,277,50,277,50s10.557,14.384,32,33c23.921,20.766,55,42,55,42s-154.2,14.048-288-15C89.3,917.538,26,829,26,829V745S58.5,794.72,149,837Z"/>
</svg>
