<svg xmlns="http://www.w3.org/2000/svg" width="1000" height="1000" viewBox="0 0 1000 1000">
  <defs>
    <style>
      .cls-1 {
        fill: #323232;
        fill-rule: evenodd;
      }
    </style>
  </defs>
  <path id="mis_tratamientos" data-name="mis tratamientos" class="cls-1" d="M141.848,70.507c202.362-10.739,388.5-21.9,568.1-32.022A98.845,98.845,0,0,1,814.36,131.757C820.473,240.2,832.153,447.4,838.391,558.08c3.122,55.392-38.513,102.33-93.215,105.413-202.363,10.739-365.848,19.286-568.211,30.025-54.488,3.071-101.236-36.88-104.358-92.273L48.576,174.922A99.013,99.013,0,0,1,141.848,70.507Zm228.626,111.31c-52.743,2.973-91.9,57.668-88.434,119.166,2.956,52.435,16,62.519,29.365,94.5,9.035,21.609,13.484,61.153,15.654,82.249,2.414,23.474,11.889,83.463,48.657,81.391,41.289-2.327,45.2-114.726,72.572-116.269,25.728-1.45,40.552,108.891,84.123,106.435,27.309-1.539,40.976-37.121,38.261-85.289-1.7-30.105-2.092-34.91,5.313-83.431,4.2-27.523,23.964-36.849,20.331-101.3-3.239-57.457-50.425-107.332-85.065-105.379-31.691,1.786-49.087,18.334-77.032,19.366C407.627,195.29,384.028,181.053,370.474,181.817ZM363.5,200.239c23.994-1.353,48.054,10.39,71.619,8.983,25.512-1.438,48.485-16.755,71.1-18.03,32.656-1.84,71.6,44.11,74.744,99.952,2.255,40.009-17.12,64.772-21.063,88.326-7.509,44.851-6.348,64.838-5.2,85.428,1.838,32.976-5.947,67.441-23.186,68.413-26.957,1.52-43.936-108.7-84.123-106.434-44.013,2.481-45.252,113.727-72.628,115.27-17.467.984-30.527-44.03-31.727-65.318-1.07-18.992-2.934-48.365-13.769-84.359-9.15-30.4-28.335-40.7-30.855-85.4C295.261,251.228,327.484,202.269,363.5,200.239ZM170.841,728.654l45.278,185.268c7.765,31.77,43.559,53.179,76.89,45.033L903.054,809.864c34.383-8.4,55.216-43.651,47.451-75.422L859.259,361.086l8.53,161.266,53.574,219.212c4.31,17.637-7.473,35.8-24.222,39.891L286.124,930.784c-18.605,4.547-36.552-6.348-40.863-23.984,0-.006-44.012-180.09-44.012-180.09Zm90.767,68.119,202.053-49.38,7.6,31.085-202.053,49.38Zm15.194,62.17L722.679,749.974l7.36,30.113L284.161,889.057Q280.483,874,276.8,858.943Z"/>
</svg>
