<svg xmlns="http://www.w3.org/2000/svg" width="1000" height="1000" viewBox="0 0 1000 1000">
  <defs>
    <style>
      .cls-1 {
        fill: #323232;
        fill-rule: evenodd;
      }
    </style>
  </defs>
  <path id="mis_estudios" data-name="mis estudios" class="cls-1" d="M919.267,655.366C900.036,734.444,901.46,788.555,901,808.915c-1.388,61.185-18.041,122.474-49.325,122.474-50.16,0-69.276-202.9-142.495-202.9-80.569,0-101.441,204.732-144.321,204.732-23.958,0-33.6-29.683-43.337-68.685-14.935-59.843-3.768-117.141-18.776-183.574C490.01,624.6,449.765,576.314,449.765,492.624c0-109.607,67.891-188.227,132.468-188.227,37.673,0,80.767,25.591,123.292,25.591,47.081,0,93.622-25.591,134.759-25.591,66.338,0,126.481,88.048,126.481,189.191C966.765,567.78,930.166,610.548,919.267,655.366ZM725.086,298.424s-0.332-3.381-.516-5.065C712.56,183.192,650.846,91.982,570.113,91.982c-54.985,0-116.876,33.184-176.285,33.184-60.5,0-117.886-35.257-169.026-35.257-86.18,0-164.878,116.457-164.878,242.65,0,109.462,59.326,185.137,71.551,249.91,17.227,56.086,7.147,173.979,24.887,246.8,9.432,38.715,22.529,77.773,46.664,77.773,36.356,0,78.594-273.76,190.8-273.76,34.588,0,60.676,26.056,78.523,53.374,0.617,0.944,1.821,2.837,1.821,2.837a192.347,192.347,0,0,1,5.724,29.858,326.4,326.4,0,0,1,.984,39.486s-0.983-2.33-1.488-3.508c-18.463-43.07-48.94-97.16-85.564-97.16C304.432,658.166,266.592,934,201.989,934c-32.483,0-53.617-33.681-70.514-104.734-20.619-86.7-8-178.2-24.887-246.8C88.124,507.453,34,442.02,34,332.558,34,189.343,121.841,65.02,224.8,65.02c51.14,0,108.524,34.22,169.026,34.22,59.409,0,119.381-34.22,176.285-34.22,92.623,0,164.607,103.08,179.618,221.844,0.23,1.823.651,5.48,0.651,5.48s-2.936,2.422-9.169,3.92A118.56,118.56,0,0,1,725.086,298.424Z"/>
</svg>
