<svg xmlns="http://www.w3.org/2000/svg" width="1000" height="1000" viewBox="0 0 1000 1000">
  <defs>
    <style>
      .cls-1 {
        fill: #323232;
        fill-rule: evenodd;
      }
    </style>
  </defs>
  <path id="notificacion" class="cls-1" d="M913,841H87v-50.7L185,694V430c0-149.667,104.382-274.95,244.318-307.033V87.078a70.706,70.706,0,0,1,70.705-70.706h0.225a70.706,70.706,0,0,1,70.706,70.706v35.73C711.254,154.624,816,280.074,816,430V694h0l97,97.074V841ZM594.912,892.079a94.917,94.917,0,0,1-189.828-.462c0-.178,0-0.534,0-0.534H594.917S594.915,891.747,594.912,892.079Z"/>
</svg>
