<svg xmlns="http://www.w3.org/2000/svg" width="1000" height="1000" viewBox="0 0 1000 1000">
  <defs>
    <style>
      .cls-1 {
        fill: #6b6970;
      }

      .cls-1, .cls-2 {
        fill-rule: evenodd;
      }

      .cls-2 {
        fill: #323232;
      }
    </style>
  </defs>
  <path id="Forma_1" data-name="Forma 1" class="cls-1" d="M270,96V468l-26,4V96a96.538,96.538,0,0,1,13-1A99.5,99.5,0,0,1,270,96Zm372,0V321l-27,20V97ZM297,99l26,8V459l-26,5V99Zm291,2V358l-26,17V107Zm81,0c9.332,4,16.668,8,26,12V276l-26,24S669.667,101.667,669,101ZM191,476V117a82.543,82.543,0,0,1,12-8,67.594,67.594,0,0,1,13-5V474ZM350,116l26,7V448l-26,6V116Zm185-1V388l-26,14V122Zm-53,14V411l-25,12V132Zm-78,0,25,4V430l-25,9V129Zm317,3,27,28v63l-27,31V132Zm-557,4V477H138V163Zm-54,66V476H87S66.073,402.6,72,332C77.562,265.742,110,202,110,202ZM814,360c6.571,45.266-22.961,141.167-39,164V398C790.874,383.856,803.224,373.689,814,360Zm-66,58V596c-0.412,1.936-9.892,29.423-15,63-7.713,50.7-12,114-12,114V438Zm-53,36V956c-7.688,21.019-26,35-26,35V471Zm-53,32V997a118.568,118.568,0,0,1-16-11,70.015,70.015,0,0,1-11-12V501Zm-54,28V922l-26-62V527Zm-53,24V795s-6.135-14.591-13-27a179.485,179.485,0,0,0-13-20V549Zm-53,21V720a44.484,44.484,0,0,0-11-9,57.143,57.143,0,0,0-14-5V567Zm-53,16V706a59.034,59.034,0,0,0-10,3c-6.944,2.778-15,9-15,9V582Zm-53,14V744a159.4,159.4,0,0,0-11,15c-7.109,10.938-15,25-15,25V595Zm-53,11V842l-26,67,1-304Zm-53,9V970s-5.8,10.318-12,17a56.874,56.874,0,0,1-14,11V612Zm-79,8,25-2V995a135.82,135.82,0,0,1-15-18,129.559,129.559,0,0,1-10-18V617Zm-27,2V851s-3.291-103.618-10-171c-4.156-41.741-13-60-13-60Z"/>
  <path id="Rectángulo_2" data-name="Rectángulo 2" class="cls-2" d="M991.7-.936L974.865,246.735l-75.673-52.062C881.16,223.564,761.019,394.623,537,494,280,608.008,10.089,575.336,10.089,575.336V511.292s284.284,16.751,504.185-76.6c171.062-72.616,300.715-240.438,328.7-278.7l-78.217-53.813Z"/>
</svg>
