<svg id="Grupo_2" data-name="Grupo 2" xmlns="http://www.w3.org/2000/svg" width="1000" height="1000" viewBox="0 0 1000 1000">
  <defs>
    <style>
      .cls-1 {
        fill: none;
        stroke: #323232;
        stroke-width: 40px;
        fill-rule: evenodd;
      }
    </style>
  </defs>
  <path id="Odontograma_Diagnóstico" data-name="Odontograma Diagnóstico" class="cls-1" d="M321.272,54.941c53.352,0,114.381,36.257,174.6,36.257,66.677,0,132.588-36.257,190.845-36.257,93.946,0,179.121,124.743,179.121,268.037,0,105.112-51.831,165.7-67.267,229.2-27.234,112.034-25.217,188.7-25.871,217.541-1.966,86.684-25.55,173.516-69.854,173.516-71.036,0-98.108-287.466-201.8-287.466-114.1,0-143.66,290.055-204.387,290.055-33.929,0-47.587-42.054-61.372-97.31-21.152-84.782-5.337-165.96-26.592-260.079-18.033-79.85-75.028-148.254-75.028-266.823C133.672,166.327,229.818,54.941,321.272,54.941Z"/>
</svg>
