<svg xmlns="http://www.w3.org/2000/svg" width="1000" height="1000" viewBox="0 0 1000 1000">
  <defs>
    <style>
      .cls-1 {
        fill: #323232;
        fill-rule: evenodd;
      }
    </style>
  </defs>
  <path id="pacientes_confirmados" data-name="pacientes confirmados" class="cls-1" d="M500,977C237.262,977,24,763.1,24,500,24,236.617,237.262,23,500,23c263.867,0,477,213.617,477,477C977,763.1,763.867,977,500,977Zm0-919C256.52,58,59,254.91,59,500c0,243.77,197.52,441,441,441,244.113,0,442-197.23,442-441C942,254.91,744.113,58,500,58Zm0,855c-227.762,0-338-178-338-178s14.857-85.113,55-147c43.7-67.379,113-112,113-112s58.422,72,170,72c112.047,0,171-72,171-72s77.482,53.813,115,112c45.253,70.182,52,147,52,147S728.12,913,500,913ZM675,504L440,740,325,627l-65,65L440,871,741,569ZM499.488,515C386,515,294,423,294,309.512s92-205.487,205.488-205.487,205.488,92,205.488,205.487S612.976,515,499.488,515Z"/>
</svg>
