<svg id="barra_abajo" data-name="barra abajo" xmlns="http://www.w3.org/2000/svg" width="1000" height="1000" viewBox="0 0 1000 1000">
  <defs>
    <style>
      .cls-1 {
        fill: #fff;
        fill-rule: evenodd;
      }
    </style>
  </defs>
  <path id="pacientes" class="cls-1" d="M500,977C237.262,977,24,763.1,24,500,24,236.617,237.262,23,500,23c263.867,0,477,213.617,477,477C977,763.1,763.867,977,500,977Zm0-919C256.52,58,59,254.91,59,500c0,243.77,197.52,441,441,441,244.113,0,442-197.23,442-441C942,254.91,744.113,58,500,58Zm1,846c-242.67,0-361.523-201.18-361.523-201.18S142.251,695.561,145,690C196.3,586.239,327.378,531.534,327.378,531.534s57.557,73.471,171.75,73.471c111.178,0,173.714-70.168,173.714-70.168s130.871,51.639,180.967,154.957C856.1,694.526,860,702,860,702,857.485,698.606,754.263,904,501,904Zm-0.964-336.421c-113.535,0-205.573-92.038-205.573-205.572S386.5,156.434,500.036,156.434s205.572,92.038,205.572,205.573S613.57,567.579,500.036,567.579Z"/>
</svg>
