<svg xmlns="http://www.w3.org/2000/svg" width="1000" height="1000" viewBox="0 0 1000 1000">
  <defs>
    <style>
      .cls-1 {
        fill: #323232;
        fill-rule: evenodd;
      }
    </style>
  </defs>
  <path id="personal" class="cls-1" d="M500,977C237.262,977,24,763.1,24,500,24,236.617,237.262,23,500,23c263.867,0,477,213.617,477,477C977,763.1,763.867,977,500,977Zm0-919C256.52,58,59,254.91,59,500c0,243.77,197.52,441,441,441,244.113,0,442-197.23,442-441C942,254.91,744.113,58,500,58ZM680.224,767.679c-0.745.037-2.235,0.1-2.235,0.1s0.021-30.795.021-47.713C678.01,644.719,600.613,599,576,599c-0.552,0,2.168-1.627,2.576-2.009A118.834,118.834,0,0,0,596,577c12.864-19.093,18.007-50.011,18-50a20.658,20.658,0,0,1,5.7-1.093c10.739-.277,27.011-0.439,43.287-0.469,24.307-.046,48.624.2,54.533,0.783,55.005,5.435,102.334,56.035,102.334,106.686V740.075S752.526,764.114,680.224,767.679ZM663.5,512a90.069,90.069,0,0,1-48.135-13.849c-0.845-.532-2.507-1.637-2.507-1.637S609.891,476.543,600,459c-9.98-17.7-26.889-32.974-26.889-32.974s-0.111-3-.111-4.521A90.495,90.495,0,1,1,663.5,512ZM500.213,340a98.213,98.213,0,1,1,98.213-98.213A98.212,98.212,0,0,1,500.213,340ZM429,421.505c0,1.516-.111,4.521-0.111,4.521S411.98,441.3,402,459c-9.891,17.543-12.853,37.514-12.853,37.514s-1.662,1.105-2.507,1.637A90.5,90.5,0,1,1,429,421.505ZM338.009,525.438c16.276,0.03,32.548.192,43.287,0.469A20.658,20.658,0,0,1,387,527c-0.007-.011,5.136,30.907,18,50a118.834,118.834,0,0,0,17.424,19.991C422.832,597.373,425.552,599,425,599c-24.613,0-102.01,45.719-102.01,121.07,0,16.918.021,47.713,0.021,47.713s-1.49-.067-2.235-0.1c-72.3-3.565-139.634-27.6-139.634-27.6V632.907c0-50.651,47.329-101.251,102.334-106.686C289.385,525.637,313.7,525.392,338.009,525.438ZM453,410c-2.861-22.331-8.593-37.829-22-57,17.932,0,131.667-.219,141,0-9.952,14.082-20.773,36.273-22,58C522.8,395.689,478.249,395.549,453,410Zm47.5,197a90.495,90.495,0,1,1,90.494-90.495A90.5,90.5,0,0,1,500.5,607Zm-55.156,8.706c0.368-.044,1.1-0.127,1.1-0.127S475.724,629,499,629c24.838,0,54.858-13.6,54.858-13.6s0.57,0.052.855,0.08C609.693,620.907,657,671.428,657,722V829s-78.515,28-157,28c-77.509,0-155-28-155-28V722C345,672.249,391.642,622.19,445.339,615.706Z"/>
</svg>
