<svg id="Grupo_2" data-name="Grupo 2" xmlns="http://www.w3.org/2000/svg" width="1000" height="1000" viewBox="0 0 1000 1000">
  <defs>
    <style>
      .cls-1 {
        fill: #7e7c7c;
      }

      .cls-1, .cls-2, .cls-3 {
        fill-rule: evenodd;
      }

      .cls-2 {
        fill: #323232;
      }

      .cls-3 {
        fill: none;
        stroke: #323232;
        stroke-width: 20px;
      }
    </style>
  </defs>
  <path id="Rectángulo_1_copia" data-name="Rectángulo 1 copia" class="cls-1" d="M288.985,97H834.008a115,115,0,0,1,115,115V861.987a115,115,0,0,1-115,115H288.985a115,115,0,0,1-115-115V212A115,115,0,0,1,288.985,97Z"/>
  <path id="Rectángulo_2_copia_2" data-name="Rectángulo 2 copia 2" class="cls-2" d="M741,949H189c-76.433,0-138-62.254-138-138V161A137.66,137.66,0,0,1,189,23H741c74.856,0,137,61.469,137,138V811C878,886.746,815.856,949,741,949Zm96-793a92.037,92.037,0,0,0-92-92H185c-51.738,0-93,47.281-93,92V816c0,50.848,41.262,92,93,92H745a91.9,91.9,0,0,0,92-92V156ZM700.007,834.007H262.013a22,22,0,0,1-22-22v-1.45a22,22,0,0,1,22-22H700.007a22,22,0,0,1,22,22v1.45A22,22,0,0,1,700.007,834.007Zm0-104.938H262.013a22,22,0,0,1-22-22v-1.45a22,22,0,0,1,22-22H700.007a22,22,0,0,1,22,22v1.45A22,22,0,0,1,700.007,729.069Zm0-104.608H262.013a22,22,0,0,1-22-22v-1.45a22,22,0,0,1,22-22H700.007a22,22,0,0,1,22,22v1.45A22,22,0,0,1,700.007,624.461Z"/>
  <path id="Odontograma_Diagnóstico_copia" data-name="Odontograma Diagnóstico copia" class="cls-3" d="M424.616,210.855c16.924,0,36.283,11.5,55.387,11.5,21.151,0,42.059-11.5,60.539-11.5,29.8,0,59.458,39.69,59.458,85.145,0,33.343-16.079,52.445-20.975,72.587-8.639,35.539-8,59.857-8.207,69.007-0.624,27.5-7.6,55.042-25.159,55.042-28.8,0-34.817-91.189-64.014-91.189C449.563,401.447,449.721,493,420,493c-10.763,0-18.285-12.882-22.658-30.411-6.71-26.894-1.693-52.645-8.436-82.5-5.72-25.33-23.8-47.029-23.8-84.641C365.106,246.188,395.605,210.855,424.616,210.855Z"/>
</svg>
