<svg xmlns="http://www.w3.org/2000/svg" width="1000" height="1000" viewBox="0 0 1000 1000">
  <defs>
    <style>
      .cls-1 {
        fill: #323232;
        fill-rule: evenodd;
      }
    </style>
  </defs>
  <path id="radiografias" class="cls-1" d="M500,977C237.262,977,24,763.1,24,500,24,236.617,237.262,23,500,23c263.867,0,477,213.617,477,477C977,763.1,763.867,977,500,977Zm0-919C256.52,58,59,254.91,59,500c0,243.77,197.52,441,441,441,244.113,0,442-197.23,442-441C942,254.91,744.113,58,500,58ZM683,387s-43,28.486-43,68c0,65.762,66.551,74.885,66,136-0.273,30.263,3.831,76.7-27,101-11.152,8.79-26.961,2.477-37,13-5.922,6.207-2,27-2,27s15,17,15,48a82.988,82.988,0,0,1-83,83c-32.459,0-55.553-19.775-56-20-61.762-31.142-182.055-89.088-276-138-35.234,0-114-50.633-114-138A135.931,135.931,0,0,1,262,431c89.967,0,127,81.684,127,90,27.929-12.343,69.783-39.711,103-67,36.069-29.632,63.512-64.262,76-79-45.478-28.949-66-72.956-66-117A136.086,136.086,0,0,1,638,122c75.564,0.219,137,60.91,137,136C775,357.168,683,387,683,387Zm1,251c5.646-19.447-8.529-50.557-25-23-0.476.8-.636,9.988-1,18C664.652,634.279,678.1,636.648,684,638Zm-5,20c-7.493-1.3-17.831-3.38-24-5-0.519,4.752-2.006,8.834-2,12C653.029,680.371,672.378,689.643,679,658Zm-35-27c6.289-34.292-28-55.933-41-9C612.666,624,634.334,629,644,631Zm-3,19c-8-1.666-32-6.334-40-8C595.54,678.186,634.487,687.859,641,650ZM572,842a63,63,0,1,0-63-63A62.892,62.892,0,0,0,572,842ZM262,452A115.585,115.585,0,0,0,146,568v15s55.624-2.444,113-15c49.111-10.747,100.094-31.332,112-37C371,516.59,337.782,452,262,452Zm114,99a593.948,593.948,0,0,1-101,35c-51.307,12.6-114.356,18-122,18,0,14.54,35.114,79,109,79A114.471,114.471,0,0,0,377,568,58.91,58.91,0,0,0,376,551Zm6,78c0,13.289-50.045,72-100,72,67.993,34.663,143.007,73.337,211,108-2.606-9.657-5-18.607-5-29a83.7,83.7,0,0,1,84-84c29.925,0,46,14,46,14s4.335-15.8,9-21c-20.964,5-33.469-8.455-37-20-19.458,20.855-47.006,13.168-53-12-14.87,15.659-35.285,19.77-52-9-19.349,18.318-42.345,15.265-51-11C413.177,656.319,393.517,648.394,382,629Zm207-10c9.744-45.885-33.9-46.146-38-8C560.332,612.666,579.668,617.334,589,619Zm-40,12c-6.437,38.124,29.22,43.392,38,8C577.668,637,558.332,633,549,631Zm-12-23c10.036-36.429-28.469-49.637-37-7C509.332,603,527.359,606.471,537,608Zm-40,12c-6.51,39.013,32.945,43.3,38,8C525.668,626,506.332,622,497,620Zm-9-21c8.168-28.211-27.928-56.9-40-8C457.332,593,478.668,597,488,599Zm-43,11c-6,34.57,30.527,47.223,40,8Zm-45-29c9.65,2.191,28.813,6.057,36,7C434.179,531,397.026,559.873,400,581Zm-2,20c-6,30.412,23.1,46.335,31,6C419.668,605.333,407.332,602.666,398,601Zm89-118c-46.843,37.105-91,58-91,58v5s34.619-31,51,13c23.078-21.152,43.448-10.673,52,10,21.591-23.072,46.63-10.381,52,11,18.179-20.424,42.505-11.772,51,9,14.644-12.653,33.063-19.21,50,4,10.473-9.783,24.881-11.582,33-5,0-43.041-65-65.434-65-125,0-15.869-1.912-36.368,24-68-22.164-.164-41.372-3.712-58-10C577.077,395.371,531.657,447.627,487,483ZM638,143c-64.112,0-115.985,51.871-116,115-0.015,64.953,51.888,117,116,117s116-52.048,116-117C754,194.871,702.105,143,638,143Z"/>
</svg>
