<svg id="Grupo_2" data-name="Grupo 2" xmlns="http://www.w3.org/2000/svg" width="1000" height="1000" viewBox="0 0 1000 1000">
  <defs>
    <style>
      .cls-1 {
        fill: #323232;
      }

      .cls-1, .cls-2 {
        fill-rule: evenodd;
      }

      .cls-2 {
        fill: #7e7c7c;
      }
    </style>
  </defs>
  <path id="Ruta_clínica" data-name="Ruta clínica" class="cls-1" d="M364.765,324.053s-12.093.089-12.078-12.079c0.007-6.425,10.772-7.813,15.636-7.247,135.428,15.753,238.019,41.684,238.019,108.709,0,182.035-519.39,76.14-519.39,263.319,0,101.571,345.457,153.919,758.551,200.509,61.426,6.928,61.423,29.174,60.395,43.484-1.026,14.282-24.917,28.734-50.731,26.573C574.007,923.785,31.389,847.932,31.389,676.755,31.389,488.183,480.5,527.2,553.2,454.5,656.421,351.279,364.765,324.053,364.765,324.053Z"/>
  <path id="casa" class="cls-2" d="M958.392,639.7l-0.755.756a20,20,0,0,1-28.284,0L748.581,459.678,567.808,640.451a20,20,0,0,1-28.284,0l-0.755-.756a20,20,0,0,1,0-28.284L734.26,415.92a20.457,20.457,0,0,1,28.642,0l195.49,195.491A20,20,0,0,1,958.392,639.7ZM780,524c43.39,43.39,125,126,125,126V795c0,14.653-11.452,27-26,27H618c-14.884-.313-27-12.347-27-27V650s84.859-82.859,128-126C745.814,497.186,753.15,497.15,780,524ZM667,655v62h51v49h61V717h50V655H779V604H718v51H667Z"/>
  <path id="cruz" class="cls-2" d="M480.722,205.68H413.081v67.642H330.945V205.68H260.887V123.544h70.058V53.487h82.136v70.057h67.641V205.68Z"/>
</svg>
