<svg xmlns="http://www.w3.org/2000/svg" width="1000" height="1000" viewBox="0 0 1000 1000">
  <defs>
    <style>
      .cls-1 {
        fill: #323232;
        fill-rule: evenodd;
      }
    </style>
  </defs>
  <path id="saldo_total" data-name="saldo total" class="cls-1" d="M933,627H881.546L774,767,665.705,627H301a38.717,38.717,0,0,1-39-39V156a38.8,38.8,0,0,1,39-39H933a38.788,38.788,0,0,1,39,39V588A38.7,38.7,0,0,1,933,627ZM658.156,284.55c6.867,10.3,3.852,28.242,3.852,28.242h55.2s-1.207-40.111-20.54-60.335c-22.191-23.216-62.9-26.959-62.9-26.959V199.823h-20.54V225.5s-84.727-.391-84.727,80.875c0,73.142,84.727,84.727,84.727,84.727v80.875S593.861,466.134,584.984,454c-10.276-14.045-5.135-34.661-5.135-34.661H523.365s-5.426,43.356,21.823,70.605c28.981,28.981,68.038,26.958,68.038,26.958v38.512h20.54V516.905s88.577,0.6,88.577-87.293c0-69.689-88.577-88.578-88.577-88.578V270.429S650.912,273.684,658.156,284.55Zm-75.74,16.688c0-27.174,30.81-30.809,30.81-30.809V335.9S582.416,332.671,582.416,301.238Zm83.443,133.508c0,35.376-32.093,37.229-32.093,37.229v-75.74S665.859,407.937,665.859,434.746ZM597.336,669.1v72.845a31.047,31.047,0,0,1-31.273,31.274H273.613l-86.84,112.263L100.534,773.218H59.273A31.037,31.037,0,0,1,28,741.944V395.531a31.1,31.1,0,0,1,31.273-31.273C76.34,364.258,221,364,221,364V608a61.081,61.081,0,0,0,61,61C341.848,669,597.336,669.1,597.336,669.1Z"/>
</svg>
