<svg xmlns="http://www.w3.org/2000/svg" width="1000" height="1000" viewBox="0 0 1000 1000">
  <defs>
    <style>
      .cls-1 {
        fill: #323232;
        fill-rule: evenodd;
      }
    </style>
  </defs>
  <path id="servicios_externos" data-name="servicios externos" class="cls-1" d="M564,32S855.2,166.867,866,219c2.647,20.382-250,91-250,91L606,210s-106.6-55.075-261,58c-77.364,56.655-57,160-57,160s-72.46-81.171,2-201C387.489,70.109,587,98,587,98ZM537,309l202,73v36l23,9V911L537,969,371,877v-9L239,903,134,847V594l12-8V566l93-74,123,45v26l9,3V471l18-16V427Zm22,96v95l81,16V429Zm-41,5-55,37v82l55-24V410Zm147,25v84l66,16V456ZM435,464l-39,23v70l39-16V464Zm124,67v93l81,6V547Zm-41,4-55,21v80l55-11V535Zm147,15v81l66,6V562Zm-413,3v58l50,11V568Zm-26,6-35,20,1,51,34-15V559Zm209,5-39,13v71l39-7V564Zm-118,8v53l42,8V585ZM150,606v41l24-9V592Zm102,25v59l50,4V641Zm-60,16v49l34-5V634Zm125-5v53l42,3V650ZM174,653l-24,9v42l24-4V653Zm385,3v94l81-5V660Zm-96,6v81l55,7V656Zm202-1v83l66-2V665Zm-269,7v69l39,4V664ZM252,709v58l50-2V712Zm-26,2-34,2v50l34,4V711Zm91,1v51l42,1V714Zm-167,5v42l24,3V715Zm246,39v64l39,16V762Zm269,17v84l66-12V767Zm-202-5v77l55,23V781Zm-313,4v39l24,9V777Zm490,2-81,6v93l81-12V774Zm-281,5-42,3v52l42-6V779Zm-167,1v48l34,14V787Zm110,3-50,4v57l50-7V783Z"/>
</svg>
