<svg xmlns="http://www.w3.org/2000/svg" width="1000" height="1000" viewBox="0 0 1000 1000">
  <defs>
    <style>
      .cls-1 {
        fill: #323232;
        fill-rule: evenodd;
      }
    </style>
  </defs>
  <path id="telefono" class="cls-1" d="M167,110c30.944,0,52.505,20.678,67,40,20.824,27.758,43,58.731,60,85,13.632,21.064,24.353,35.518,20,51-5.162,18.357-44.948,34.857-71,54-19.517,14.341-25.53,21.9-33.5,45.621C193.279,433.854,212.4,476.246,251,532c44.4,64.129,85.266,133.058,120,188,19.438,30.747,38.448,43.324,72,56,72.237,27.292,129.9-75.34,162-43,28.787,29,92.739,107.927,91,173-1.38,51.656-38.7,88.746-170,56C323.607,911.523,154.839,706.554,88,480,43.629,329.6,66.124,110,167,110ZM499,242c50.018,20.964,100.5,55.868,137,104,37.616,49.6,54.681,107.007,61,157,3.329,26.34,5.9,72.122-20,77-31.526,5.937-36.582-9.843-36-57,0.53-42.924-20.956-97.691-54-141-35.594-46.652-84.054-80.687-117-92C424.408,274.344,446.933,220.177,499,242Zm59-111c50.018,20.964,143.5,86.868,180,135,37.616,49.6,86.732,155.072,89,222,1.148,33.886,7.2,75.909-22,77-32.058,1.2-31.387-31.29-33.683-64.54C767.494,445.074,722.051,345.317,689,302c-35.6-46.651-127.054-111.687-160-123C483.408,163.344,505.933,109.177,558,131ZM615,31c50.018,20.965,177.593,75.483,244,189,68.772,117.56,81.781,232.16,81,252-1.334,33.879,1.2,73.909-28,75-32.058,1.2-31.176-31.3-33.683-64.54C869.33,363.322,824.051,276.317,791,233c-35.6-46.651-103.617-110.356-206-150C540.047,65.594,562.933,9.177,615,31Z"/>
</svg>
