<svg xmlns="http://www.w3.org/2000/svg" width="388" height="375" viewBox="0 0 388 375">
  <defs>
    <style>
      .cls-1 {
        fill: none;
        stroke: #323232;
        stroke-linecap: round;
        stroke-linejoin: round;
        stroke-width: 15px;
      }

      .cls-1, .cls-2, .cls-3 {
        fill-rule: evenodd;
      }

      .cls-2, .cls-3 {
        fill: #7e7c7c;
        stroke: #7e7c7c;
      }

      .cls-2 {
        stroke-width: 2px;
      }

      .cls-3 {
        stroke-width: 12px;
      }
    </style>
  </defs>
  <path id="Rectángulo_1" data-name="Rectángulo 1" class="cls-1" d="M138.471,204.105c15.556-.432,44.637,17.118,72.331,25.324,18.767,5.56,42.1,2.718,50.557,6.818C277.642,244.139,279.121,258.412,272,266c-7.025,7.486-22.478,8.334-32,9-15.458,1.08-66-9-66-9s-4.623-1.159-5,2a4.591,4.591,0,0,0,3,5s41.547,12.125,82,4c21.717-4.362,63.489-51.379,82-59,13.746-5.659,26.072,4.8,25.5,17.375-0.876,19.24-81.307,99.66-120.559,99.66-18.666,0-133.2-21.428-133.2-21.428L78.494,238.4S119.477,204.633,138.471,204.105Z"/>
  <path id="Rectángulo_2_copia_2" data-name="Rectángulo 2 copia 2" class="cls-2" d="M124.161,345.494a7.778,7.778,0,0,1-4.757,6.158l-49.825,20.33a7.734,7.734,0,0,1-10.093-4.29l-0.5-1.233a7.807,7.807,0,0,1,4.267-10.15L105.922,338.9,58.059,215.623,16.172,232.714a7.734,7.734,0,0,1-10.093-4.291l-0.5-1.232a7.807,7.807,0,0,1,4.267-10.15l49.826-20.33a7.671,7.671,0,0,1,4.53-.4,7.754,7.754,0,0,1,6.318,4.905l53.732,138.393A7.8,7.8,0,0,1,124.161,345.494Z"/>
  <path id="Odontograma_Diagnóstico_copia" data-name="Odontograma Diagnóstico copia" class="cls-3" d="M239.836,12.51c10.821,0,23.2,7.338,35.414,7.338,13.524,0,26.893-7.338,38.709-7.338,19.055,0,36.331,25.247,36.331,54.248,0,21.274-10.513,33.537-13.644,46.388a178.894,178.894,0,0,0-5.247,44.029c-0.4,17.544-5.183,35.118-14.169,35.118-14.408,0-19.9-58.181-40.93-58.181-23.143,0-29.138,58.705-41.456,58.705-6.881,0-9.652-8.511-12.448-19.695-4.29-17.159-1.082-33.589-5.393-52.638-3.658-16.16-15.218-30-15.218-54C201.785,35.054,221.286,12.51,239.836,12.51Z"/>
</svg>
