<svg xmlns="http://www.w3.org/2000/svg" width="1000" height="1000" viewBox="0 0 1000 1000">
  <defs>
    <style>
      .cls-1 {
        fill: #323232;
      }

      .cls-1, .cls-2 {
        fill-rule: evenodd;
      }

      .cls-2 {
        fill: #7e7c7c;
      }
    </style>
  </defs>
  <path id="Forma_3" data-name="Forma 3" class="cls-1" d="M380,525c76.773,0,131.455,77,286,77,47.873,0,81,39.846,81,62,15.233-15.233,114.886-107,158-107,17.6,0,62,11.156,62,66,0,64.9-219.716,275-324,275-42.28,0-334.046-54-334-54l-12-39s297.513,57,352,57c67.274,0,283-185.846,283-243,0-16.214-12.715-26-26-26-56.6,0-143.285,163-289,163-82.54,0-177,2.17-177-50,0-49.592,76.982,2,177,2,72.247,0,96-11.88,96-34,0-14.812-10.818-38-94-38-73.875,0-206.992-74-236-74-46.429,0-145,83-145,83l-16-36S324,525,380,525Z"/>
  <path id="Odontograma_Diagnóstico_copia" data-name="Odontograma Diagnóstico copia" class="cls-2" d="M917,313c-15.857,65.188-13.619,109.216-14,126-1.145,50.438-28.811,103-64,103-70.135,0-74.979-148-108-148-28.913,0-41.506,148-105,148-38.484,0-66-52.372-66-103,0-68.708-4.9-90.736-16-127-13.944-45.546-33-57.588-33-133,0-75.1,62.272-155.432,115.522-155.432C675.509,23.568,695.934,41,731,41c38.823,0,50.546-17.432,108.308-17.432,54.7,0,112.3,72.583,112.3,155.961C951.6,269.077,925.987,276.054,917,313ZM328.359,922.8L200,975.17a19.923,19.923,0,0,1-26-11.052l-1.281-3.175A20.111,20.111,0,0,1,183.71,934.8l109.918-44.85-123.3-317.579L62.42,616.4a19.923,19.923,0,0,1-26-11.053l-1.281-3.175a20.111,20.111,0,0,1,10.991-26.147l128.358-52.373a19.759,19.759,0,0,1,11.669-1.031,19.978,19.978,0,0,1,16.276,12.637L340.853,891.773A27.925,27.925,0,0,1,328.359,922.8Z"/>
</svg>
